<?xml version="1.0" encoding="utf-8"?>
<!-- Generator: Adobe Illustrator 19.0.0, SVG Export Plug-In . SVG Version: 6.00 Build 0)  -->
<svg version="1.1" id="Capa_1" xmlns="http://www.w3.org/2000/svg" xmlns:xlink="http://www.w3.org/1999/xlink" x="0px" y="0px"
	 viewBox="9 257 48 48" style="enable-background:new 9 257 48 48;" xml:space="preserve">
<style type="text/css">
	.Chrome_x0020_Highlight{fill:url(#SVGID_1_);stroke:#FFFFFF;stroke-width:0.3629;stroke-miterlimit:1;}
	.st0{fill:url(#XMLID_10_);}
	.st1{opacity:0.51;}
	.st2{fill:url(#XMLID_11_);}
	.st3{opacity:0.7;}
	.st4{fill:url(#XMLID_13_);}
	.st5{opacity:0.49;}
	.st6{fill:#FFFFFF;}
	.st7{fill:none;stroke:#717171;stroke-width:0.5878;stroke-miterlimit:1;}
	.st8{opacity:0.58;}
	.st9{fill:#994F77;stroke:#000000;stroke-width:0.25;stroke-miterlimit:10;}
	.st10{opacity:0.35;}
	.st11{fill:#FF7998;}
	.st12{fill:#DD2F5D;}
	.st13{fill:#674447;}
	.st14{fill:#674447;stroke:#000000;stroke-width:0.2;stroke-miterlimit:10;}
	.st15{fill:#4F3639;}
</style>
<linearGradient id="SVGID_1_" gradientUnits="userSpaceOnUse" x1="-223" y1="537" x2="-223" y2="536">
	<stop  offset="0" style="stop-color:#656565"/>
	<stop  offset="0.618" style="stop-color:#1B1B1B"/>
	<stop  offset="0.6292" style="stop-color:#545454"/>
	<stop  offset="0.9831" style="stop-color:#3E3E3E"/>
</linearGradient>
<g id="XMLID_22_">
	<g id="XMLID_12_">
		<g id="XMLID_20_">
			<g>
				<linearGradient id="XMLID_10_" gradientUnits="userSpaceOnUse" x1="33" y1="304" x2="33" y2="258">
					<stop  offset="0" style="stop-color:#656565"/>
					<stop  offset="0.618" style="stop-color:#1B1B1B"/>
					<stop  offset="0.6292" style="stop-color:#545454"/>
					<stop  offset="0.9831" style="stop-color:#3E3E3E"/>
				</linearGradient>
				<circle id="XMLID_32_" class="st0" cx="33" cy="281" r="23"/>
			</g>
			<g class="st1">
				<linearGradient id="XMLID_11_" gradientUnits="userSpaceOnUse" x1="33" y1="304" x2="33" y2="258">
					<stop  offset="0" style="stop-color:#0E0E0E"/>
					<stop  offset="0.5" style="stop-color:#000000"/>
					<stop  offset="0.5213" style="stop-color:#010101"/>
					<stop  offset="0.7262" style="stop-color:#0B0B0B"/>
					<stop  offset="1" style="stop-color:#0E0E0E"/>
				</linearGradient>
				<circle id="XMLID_31_" class="st2" cx="33" cy="281" r="23"/>
			</g>
			<g class="st3">
				<linearGradient id="XMLID_13_" gradientUnits="userSpaceOnUse" x1="33" y1="258" x2="33" y2="304">
					<stop  offset="0" style="stop-color:#FFFFFF;stop-opacity:0.77"/>
					<stop  offset="0.2033" style="stop-color:#FFFFFF;stop-opacity:0.65"/>
					<stop  offset="0.3448" style="stop-color:#FFFFFF;stop-opacity:0.65"/>
					<stop  offset="0.3462" style="stop-color:#FFFFFF;stop-opacity:0.65"/>
					<stop  offset="0.511" style="stop-color:#FFFFFF;stop-opacity:0"/>
					<stop  offset="0.5247" style="stop-color:#E1E1E1;stop-opacity:4.472275e-003"/>
					<stop  offset="0.5464" style="stop-color:#B8B8B8;stop-opacity:1.158136e-002"/>
					<stop  offset="0.5708" style="stop-color:#929292;stop-opacity:1.957367e-002"/>
					<stop  offset="0.5974" style="stop-color:#727272;stop-opacity:2.826838e-002"/>
					<stop  offset="0.6268" style="stop-color:#565656;stop-opacity:3.787606e-002"/>
					<stop  offset="0.6599" style="stop-color:#404040;stop-opacity:4.872554e-002"/>
					<stop  offset="0.6986" style="stop-color:#2F2F2F;stop-opacity:6.138782e-002"/>
					<stop  offset="0.7465" style="stop-color:#242424;stop-opacity:7.705475e-002"/>
					<stop  offset="0.8136" style="stop-color:#1D1D1D;stop-opacity:9.902187e-002"/>
					<stop  offset="1" style="stop-color:#1B1B1B;stop-opacity:0.16"/>
				</linearGradient>
				<circle id="XMLID_30_" class="st4" cx="33" cy="281" r="23"/>
			</g>
			<g class="st5">
				<g>
					<path class="st6" d="M33,303.3c-12.2-0.4-22.5-9.8-22.5-22.3c0-12.2,10.3-22.3,22.5-22.3c11.2,0,21.2,8.7,22.5,19.9
						C57,292,45.9,302.9,33,303.3c0,0,0,0.7,0,0.7c19.4-0.6,29.9-23.9,16.9-38.4C36,250,10.1,260.7,10.4,281.3
						c0.2,12.6,10.2,22.3,22.6,22.7C33,304,33,303.3,33,303.3z"/>
				</g>
			</g>
			<g>
				<circle id="XMLID_29_" class="st7" cx="33" cy="281" r="23"/>
			</g>
			<g class="st8">
				<g>
					<path d="M33,258.1c12.6,0.4,22.8,10.1,22.8,22.9c0,12.5-10.2,23-22.8,22.9c-11.5,0-21.5-8.8-22.8-20.2
						C8.5,269.9,19.5,258.5,33,258.1c0,0,0-0.1,0-0.1c-19.4,0.6-30.3,23.7-17.2,38.4C29.7,311.8,56,301.7,56,281
						c0-12.8-10.4-22.6-23-23C33,257.9,33,258.1,33,258.1z"/>
				</g>
			</g>
			<g>
				<circle id="XMLID_27_" class="st9" cx="33" cy="281" r="23"/>
			</g>
		</g>
		<g id="XMLID_18_" class="st10">
			<circle id="XMLID_6_" class="st11" cx="29" cy="282.4" r="13.7"/>
		</g>
		<g id="XMLID_16_">
			<path id="XMLID_5_" class="st12" d="M54.6,288.9H22.2l7.2,10.1c0,0,5.6,2.4,9.9,4.1C46.4,301.1,52.1,295.8,54.6,288.9z"/>
		</g>
		<g id="XMLID_14_">
			<path id="XMLID_4_" class="st13" d="M33,304c6.1,0,11.7-2.4,15.8-6.3c-3.1-0.1-3.9-0.8-9.4-0.8c-2.4,0-8.5,2.1-10.8-2.3
				c-1.8-3.5-5-6.3-7.7-6.9c-2.2-0.6-2.9-2.8-3.1-5.4c-0.2-2.8-2.4-2.8-3.9-4.6c-1.3-1.7-1.3-3.6-2.8-3.8c-0.7,2.3-1.1,4.7-1.1,7.2
				C10,293.7,20.3,304,33,304z"/>
		</g>
		<path id="XMLID_3_" class="st14" d="M40.2,269.8c-0.2-0.2-0.4-0.2-0.6-0.2l-10,1.6c-0.4,0.1-0.7,0.4-0.7,0.8v3.2v5h-1.6
			c-1.7,0-3.2,1.3-3.2,2.9c0,1.6,1.4,2.9,3.2,2.9s3.2-1.3,3.2-2.9v-2.1v-5.1l8.4-1.3v4.3h-1.6c-1.7,0-3.2,1.3-3.2,2.9
			s1.4,2.9,3.2,2.9s3.2-1.3,3.2-2.9v-2.1v-6v-3.2C40.5,270.2,40.4,270,40.2,269.8z"/>
	</g>
	<g id="XMLID_9_">
		<path id="XMLID_2_" class="st15" d="M30.9,266.7c0,0,0.5-0.1,0.9,0c0.4,0.1,0.8,0.5,1.3,0.5c0.5,0,0.4-0.2,0.4-0.2s-0.3,0-0.4-0.2
			c-0.1-0.3,0.2-0.5,0.7-0.9c0.5-0.4,0.6-0.8,0.5-1c0,0-0.1,0.2-0.5,0.4c-0.4,0.2-0.7,0.7-1,1c-0.3,0.3-0.3,0.3-0.6,0.3
			C31.8,266.5,31.2,266.3,30.9,266.7z"/>
		<path id="XMLID_1_" class="st15" d="M46.7,272.2c0,0,0.5-0.1,0.9,0c0.4,0.1,0.8,0.5,1.3,0.5c0.5,0,0.4-0.2,0.4-0.2s-0.3,0-0.4-0.2
			c-0.1-0.3,0.2-0.5,0.7-0.9c0.5-0.4,0.6-0.8,0.5-1c0,0-0.1,0.2-0.5,0.4c-0.4,0.2-0.7,0.7-1,1c-0.3,0.3-0.3,0.3-0.6,0.3
			C47.6,272,47,271.9,46.7,272.2z"/>
	</g>
</g>
</svg>
