<?xml version="1.0" encoding="utf-8"?>
<!-- Generator: Adobe Illustrator 19.0.0, SVG Export Plug-In . SVG Version: 6.00 Build 0)  -->
<svg version="1.1" id="Capa_1" xmlns="http://www.w3.org/2000/svg" xmlns:xlink="http://www.w3.org/1999/xlink" x="0px" y="0px"
	 viewBox="9 257 48 48" style="enable-background:new 9 257 48 48;" xml:space="preserve">
<style type="text/css">
	.st0{fill:#B26483;}
	.st1{opacity:0.35;}
	.st2{fill:#FF7998;}
	.st3{fill:#FF4F70;}
	.st4{fill:#674447;}
	.st5{fill:#4F3639;}
</style>
<g>
	<g>
		<circle class="st0" cx="33" cy="281" r="24"/>
	</g>
	<g class="st1">
		<circle class="st2" cx="28.8" cy="282.5" r="14.3"/>
	</g>
	<g>
		<path class="st3" d="M55.5,289H21.8l7.5,10.6c0,0,5.9,2.5,10.3,4.3C47,301.8,52.9,296,55.5,289z"/>
	</g>
	<g>
		<path class="st4" d="M33,305c6.4,0,12.2-2.5,16.5-6.6c-3.3-0.1-4.1-0.8-9.8-0.8c-2.5,0-8.9,2.2-11.3-2.4c-1.9-3.6-5.3-6.5-8-7.2
			c-2.3-0.6-3-2.9-3.2-5.6c-0.2-2.9-2.6-3-4-4.8c-1.4-1.8-1.3-3.8-2.9-4C9.4,275.9,9,278.4,9,281C9,294.3,19.7,305,33,305z"/>
	</g>
	<path class="st4" d="M40.6,269.3c-0.2-0.2-0.5-0.2-0.7-0.2l-10.3,1.6c-0.4,0.1-0.6,0.4-0.6,0.8v3.3v5.1h-1.9
		c-1.8,0-3.3,1.4-3.3,3.1s1.3,3,3.1,3c1.8,0,3.1-1.3,3.1-3v-2.2v-5.3l9-1.4v4.8h-1.5c-1.8,0-3.3,1.2-3.3,2.9c0,1.7,1.6,2.9,3.4,2.9
		c1.8,0,3.4-1.4,3.4-3.1v-2.2v-6.3v-3.3C41,269.7,40.8,269.5,40.6,269.3z"/>
</g>
<g>
	<path class="st5" d="M26,262.8c0,0,0.5-0.1,1,0c0.5,0.1,0.9,0.5,1.4,0.5c0.5,0,0.4-0.2,0.4-0.2s-0.3,0-0.4-0.2
		c-0.1-0.3,0.3-0.5,0.8-0.9c0.5-0.4,0.6-0.8,0.5-1c0,0-0.1,0.1-0.5,0.4c-0.5,0.2-0.8,0.7-1.1,1c-0.3,0.3-0.4,0.3-0.7,0.3
		C27.1,262.6,26.4,262.5,26,262.8z"/>
	<path class="st5" d="M43.3,268.3c0,0,0.5-0.1,1,0c0.5,0.1,0.9,0.5,1.4,0.5c0.5,0,0.4-0.2,0.4-0.2s-0.3,0-0.4-0.2
		c-0.1-0.3,0.3-0.5,0.8-0.9c0.5-0.4,0.6-0.8,0.5-1c0,0-0.1,0.1-0.5,0.4c-0.5,0.2-0.8,0.7-1.1,1c-0.3,0.3-0.4,0.3-0.7,0.3
		C44.4,268.1,43.7,268,43.3,268.3z"/>
</g>
</svg>
