<?xml version="1.0" encoding="utf-8"?>
<!-- Generator: Adobe Illustrator 19.0.0, SVG Export Plug-In . SVG Version: 6.00 Build 0)  -->
<svg version="1.1" id="Capa_1" xmlns="http://www.w3.org/2000/svg" xmlns:xlink="http://www.w3.org/1999/xlink" x="0px" y="0px"
	 viewBox="-452 253 55 55" style="enable-background:new -452 253 55 55;" xml:space="preserve">
<style type="text/css">
	.st0{fill:#88C057;}
	.st1{fill:#659C35;}
	.st2{fill:#C6E2F7;}
	.st3{fill:none;stroke:#6C4127;stroke-width:2;stroke-linecap:round;stroke-miterlimit:10;}
</style>
<circle class="st0" cx="-428.7" cy="285" r="13"/>
<path class="st1" d="M-411,258.5l-6.6,19.6c1.2,2,2,4.3,2,6.9c0,4.6-2.4,8.7-6.1,11h10.7h12.6L-411,258.5z"/>
<path class="st2" d="M-435.3,258.8c1.4,0,2.6,1.3,2.6,2.9l0,0c0,1.6-1.2,2.9-2.6,2.9h-11.3h-0.4c-2.1,0-3.8-1.8-3.8-4.1
	s1.7-4.1,3.8-4.1c0,0,1.7-3.3,6-3.3c2.7,0,5.3,1.5,5.3,5.7H-435.3z"/>
<line class="st3" x1="-431.7" y1="290" x2="-428.7" y2="293"/>
<line class="st3" x1="-425.7" y1="290" x2="-428.7" y2="293"/>
<line class="st3" x1="-428.7" y1="293" x2="-428.7" y2="307"/>
<line class="st3" x1="-413.7" y1="290" x2="-410.7" y2="293"/>
<line class="st3" x1="-407.7" y1="290" x2="-410.7" y2="293"/>
<line class="st3" x1="-410.7" y1="293" x2="-410.7" y2="307"/>
</svg>
