<?xml version="1.0" encoding="utf-8"?>
<!-- Generator: Adobe Illustrator 19.0.0, SVG Export Plug-In . SVG Version: 6.00 Build 0)  -->
<svg version="1.1" id="Layer_1" xmlns="http://www.w3.org/2000/svg" xmlns:xlink="http://www.w3.org/1999/xlink" x="0px" y="0px"
	 viewBox="-354 156 250 250" style="enable-background:new -354 156 250 250;" xml:space="preserve">
<style type="text/css">
	.st0{fill:#FAFBFC;}
	.st1{fill:#FBFBFB;}
	.st2{fill:#FFFFFF;}
	.st3{fill:#EFEFEF;}
</style>
<path class="st0" d="M-248.5,201c0.9,0,1.6,0.7,1.6,1.6c0,0.9-0.7,1.6-1.6,1.6c-0.9,0-1.6-0.7-1.6-1.6S-249.4,201-248.5,201z
	 M-198,192.6c0.5,0,0.9,0.4,0.9,0.9s-0.4,0.9-0.9,0.9s-0.9-0.4-0.9-0.9S-198.5,192.6-198,192.6z M-227.3,165.4
	c0.7,0,1.4,0.6,1.4,1.4c0,0.7-0.6,1.4-1.4,1.4c-0.7,0-1.4-0.6-1.4-1.4S-228.1,165.4-227.3,165.4z M-148.4,366.3
	c0.5,0,0.9,0.4,0.9,0.9s-0.4,0.9-0.9,0.9s-0.9-0.4-0.9-0.9S-148.8,366.3-148.4,366.3z M-293.4,363.5c0.5,0,0.9,0.4,0.9,0.9
	s-0.4,0.9-0.9,0.9s-0.9-0.4-0.9-0.9C-294.2,363.9-293.8,363.5-293.4,363.5z M-202.5,394.5c0.5,0,0.9,0.4,0.9,0.9s-0.4,0.9-0.9,0.9
	s-0.9-0.4-0.9-0.9S-203,394.5-202.5,394.5z M-123.1,275.3c0.5,0,0.9,0.4,0.9,0.9s-0.4,0.9-0.9,0.9s-0.9-0.4-0.9-0.9
	C-123.9,275.7-123.5,275.3-123.1,275.3z M-137,259.2c0.5,0,0.9,0.4,0.9,0.9s-0.4,0.9-0.9,0.9s-0.9-0.4-0.9-0.9
	C-137.8,259.6-137.5,259.2-137,259.2z M-132,294.7c0.5,0,0.9,0.4,0.9,0.9s-0.4,0.9-0.9,0.9s-0.9-0.4-0.9-0.9
	C-132.8,295.1-132.5,294.7-132,294.7z M-182.7,356.5c0.5,0,0.9,0.4,0.9,0.9s-0.4,0.9-0.9,0.9s-0.9-0.4-0.9-0.9
	C-183.5,356.9-183.1,356.5-182.7,356.5z M-311.5,208.3c0.5,0,0.9,0.4,0.9,0.9s-0.4,0.9-0.9,0.9s-0.9-0.4-0.9-0.9
	S-311.9,208.3-311.5,208.3z M-274.9,185c0.5,0,0.9,0.4,0.9,0.9s-0.4,0.9-0.9,0.9s-0.9-0.4-0.9-0.9S-275.4,185-274.9,185z
	 M-342.4,277c0.5,0,0.9,0.4,0.9,0.9s-0.4,0.9-0.9,0.9s-0.9-0.4-0.9-0.9S-342.9,277-342.4,277z M-305.4,304c0.5,0,0.9,0.4,0.9,0.9
	s-0.4,0.9-0.9,0.9s-0.9-0.4-0.9-0.9S-305.9,304-305.4,304z M-301.8,334.9c0.5,0,0.9,0.4,0.9,0.9s-0.4,0.9-0.9,0.9s-0.9-0.4-0.9-0.9
	S-302.3,334.9-301.8,334.9z M-160.3,193.4c0.5,0,0.9,0.4,0.9,0.9s-0.4,0.9-0.9,0.9s-0.9-0.4-0.9-0.9
	C-161.2,193.8-160.8,193.4-160.3,193.4z M-149.9,208c1.8,0,3.3,1.5,3.3,3.3s-1.5,3.3-3.3,3.3s-3.3-1.5-3.3-3.3S-151.7,208-149.9,208
	z M-261.4,373.2c0.9,0,1.6,0.7,1.6,1.6s-0.7,1.6-1.6,1.6c-0.9,0-1.6-0.7-1.6-1.6C-263,373.9-262.3,373.2-261.4,373.2z M-136.3,319.1
	c3.4,0,6.1,2.7,6.1,6.1s-2.7,6.1-6.1,6.1s-6.1-2.7-6.1-6.1C-142.3,321.8-139.6,319.1-136.3,319.1z M-304.2,251.7
	c2.2,0,3.9,1.8,3.9,3.9c0,2.2-1.8,3.9-3.9,3.9c-2.2,0-3.9-1.8-3.9-3.9C-308.2,253.4-306.4,251.7-304.2,251.7z M-284.4,214.3
	c0.9,0,1.6,0.7,1.6,1.6c0,0.9-0.7,1.6-1.6,1.6c-0.9,0-1.6-0.7-1.6-1.6C-285.9,215-285.2,214.3-284.4,214.3z"/>
<path class="st1" d="M-187.6,196.9c21.7,0,39.3,17.6,39.3,39.3s-17.6,39.3-39.3,39.3s-39.3-17.6-39.3-39.3S-209.3,196.9-187.6,196.9
	z"/>
<path class="st2" d="M-187.6,201.7c19,0,34.4,15.4,34.4,34.4s-15.4,34.4-34.4,34.4s-34.4-15.4-34.4-34.4S-206.6,201.7-187.6,201.7z"
	/>
<path class="st3" d="M-171.5,205.7c5.7,3,10.4,7.5,13.7,13.1c-1.7,1.4-3.8,2.3-6.2,2.3c-5.2,0-9.5-4.3-9.5-9.5
	C-173.5,209.3-172.8,207.3-171.5,205.7z M-211.2,226.8c5.2,0,9.5,4.3,9.5,9.5s-4.3,9.5-9.5,9.5c-5.2,0-9.5-4.3-9.5-9.5
	S-216.4,226.8-211.2,226.8z M-185.3,227.5c5.2,0,9.5,4.3,9.5,9.5c0,5.3-4.3,9.5-9.5,9.5c-5.3,0-9.5-4.3-9.5-9.5
	S-190.5,227.5-185.3,227.5z"/>
<g>
	<path class="st2" d="M-276.9,272.4c0.7,0,1.3,0.6,1.3,1.3c0,0.7-0.6,1.3-1.3,1.3c-0.7,0-1.3-0.6-1.3-1.3S-277.6,272.4-276.9,272.4z
		"/>
	<path class="st2" d="M-239.1,293.6c0.7,0,1.3,0.6,1.3,1.3s-0.6,1.3-1.3,1.3s-1.3-0.6-1.3-1.3S-239.8,293.6-239.1,293.6z"/>
	<path class="st2" d="M-246.5,268.3c0.7,0,1.3,0.6,1.3,1.3c0,0.7-0.6,1.3-1.3,1.3c-0.7,0-1.3-0.6-1.3-1.3S-247.2,268.3-246.5,268.3z
		"/>
	<path class="st2" d="M-210.4,294.8c0.7,0,1.3,0.6,1.3,1.3c0,0.7-0.6,1.3-1.3,1.3s-1.3-0.6-1.3-1.3S-211.1,294.8-210.4,294.8z"/>
	<path class="st2" d="M-275,303.4c0.7,0,1.3,0.6,1.3,1.3c0,0.7-0.6,1.3-1.3,1.3c-0.7,0-1.3-0.6-1.3-1.3S-275.7,303.4-275,303.4z"/>
	<path class="st2" d="M-226.4,335.4c0.7,0,1.3,0.6,1.3,1.3c0,0.7-0.6,1.3-1.3,1.3s-1.3-0.6-1.3-1.3
		C-227.6,335.9-227.1,335.4-226.4,335.4z"/>
	<path class="st2" d="M-199.8,315.2c0.7,0,1.3,0.6,1.3,1.3c0,0.7-0.6,1.3-1.3,1.3s-1.3-0.6-1.3-1.3
		C-201.1,315.8-200.5,315.2-199.8,315.2z"/>
	<path class="st2" d="M-247.5,319.4c0.7,0,1.3,0.6,1.3,1.3c0,0.7-0.6,1.3-1.3,1.3c-0.7,0-1.3-0.6-1.3-1.3S-248.2,319.4-247.5,319.4z
		"/>
	<path class="st2" d="M-327.3,296.5c0.7,0,1.3,0.6,1.3,1.3s-0.6,1.3-1.3,1.3c-0.7,0-1.3-0.6-1.3-1.3S-328,296.5-327.3,296.5z"/>
	<path class="st2" d="M-175,292.4c0.7,0,1.3,0.6,1.3,1.3s-0.6,1.3-1.3,1.3c-0.7,0-1.3-0.6-1.3-1.3
		C-176.3,292.9-175.7,292.4-175,292.4z"/>
	<path class="st2" d="M-251.4,231.9c0.7,0,1.3,0.6,1.3,1.3s-0.6,1.3-1.3,1.3s-1.3-0.6-1.3-1.3C-252.7,232.4-252.1,231.9-251.4,231.9
		z"/>
	<path class="st2" d="M-321.4,235.6c0.7,0,1.3,0.6,1.3,1.3s-0.6,1.3-1.3,1.3c-0.7,0-1.3-0.6-1.3-1.3
		C-322.7,236.2-322.1,235.6-321.4,235.6z"/>
</g>
</svg>
