<?xml version="1.0" encoding="utf-8"?>
<!-- Generator: Adobe Illustrator 19.0.0, SVG Export Plug-In . SVG Version: 6.00 Build 0)  -->
<svg version="1.1" id="Layer_1" xmlns="http://www.w3.org/2000/svg" xmlns:xlink="http://www.w3.org/1999/xlink" x="0px" y="0px"
	 viewBox="-92 156 250 250" style="enable-background:new -92 156 250 250;" xml:space="preserve">
<style type="text/css">
	.st0{fill:#838383;}
	.st1{fill:#8F8F8F;}
	.st2{fill:#FAFBFC;}
	.st3{fill:#FBFBFB;}
	.st4{fill:#FFFFFF;}
	.st5{fill:#EFEFEF;}
	.st6{fill:#6C4C40;}
	.st7{fill:#4B342C;}
	.st8{fill:#5C4036;}
</style>
<g>
	<path class="st0" d="M33,156c69,0,125,56,125,125S102,406,33,406S-92,350-92,281S-36,156,33,156z"/>
	<path class="st1" d="M-19.2,254.4c0,38,30.8,68.9,68.9,68.9c38,0,68.9-30.8,68.9-68.9s-30.8-68.9-68.9-68.9
		C11.6,185.6-19.2,216.4-19.2,254.4z"/>
</g>
<path class="st2" d="M12.5,201c0.9,0,1.6,0.7,1.6,1.6c0,0.9-0.7,1.6-1.6,1.6c-0.9,0-1.6-0.7-1.6-1.6C10.9,201.7,11.6,201,12.5,201z
	 M63,192.6c0.5,0,0.9,0.4,0.9,0.9s-0.4,0.9-0.9,0.9c-0.5,0-0.9-0.4-0.9-0.9S62.5,192.6,63,192.6z M33.7,165.4c0.7,0,1.4,0.6,1.4,1.4
	c0,0.7-0.6,1.4-1.4,1.4c-0.7,0-1.4-0.6-1.4-1.4C32.3,166,32.9,165.4,33.7,165.4z M112.6,366.3c0.5,0,0.9,0.4,0.9,0.9
	s-0.4,0.9-0.9,0.9c-0.5,0-0.9-0.4-0.9-0.9S112.2,366.3,112.6,366.3z M-32.4,363.5c0.5,0,0.9,0.4,0.9,0.9s-0.4,0.9-0.9,0.9
	c-0.5,0-0.9-0.4-0.9-0.9C-33.2,363.9-32.8,363.5-32.4,363.5z M58.5,394.5c0.5,0,0.9,0.4,0.9,0.9c0,0.5-0.4,0.9-0.9,0.9
	c-0.5,0-0.9-0.4-0.9-0.9C57.6,394.9,58,394.5,58.5,394.5z M137.9,275.3c0.5,0,0.9,0.4,0.9,0.9c0,0.5-0.4,0.9-0.9,0.9
	c-0.5,0-0.9-0.4-0.9-0.9C137.1,275.7,137.5,275.3,137.9,275.3z M124,259.2c0.5,0,0.9,0.4,0.9,0.9c0,0.5-0.4,0.9-0.9,0.9
	c-0.5,0-0.9-0.4-0.9-0.9C123.2,259.6,123.5,259.2,124,259.2z M129,294.7c0.5,0,0.9,0.4,0.9,0.9c0,0.5-0.4,0.9-0.9,0.9
	c-0.5,0-0.9-0.4-0.9-0.9C128.2,295.1,128.5,294.7,129,294.7z M78.3,356.5c0.5,0,0.9,0.4,0.9,0.9c0,0.5-0.4,0.9-0.9,0.9
	c-0.5,0-0.9-0.4-0.9-0.9C77.5,356.9,77.9,356.5,78.3,356.5z M-50.5,208.3c0.5,0,0.9,0.4,0.9,0.9s-0.4,0.9-0.9,0.9
	c-0.5,0-0.9-0.4-0.9-0.9S-50.9,208.3-50.5,208.3z M-13.9,185c0.5,0,0.9,0.4,0.9,0.9c0,0.5-0.4,0.9-0.9,0.9c-0.5,0-0.9-0.4-0.9-0.9
	C-14.8,185.4-14.4,185-13.9,185z M-81.4,277c0.5,0,0.9,0.4,0.9,0.9c0,0.5-0.4,0.9-0.9,0.9c-0.5,0-0.9-0.4-0.9-0.9
	C-82.3,277.4-81.9,277-81.4,277z M-44.4,304c0.5,0,0.9,0.4,0.9,0.9c0,0.5-0.4,0.9-0.9,0.9c-0.5,0-0.9-0.4-0.9-0.9
	C-45.3,304.4-44.9,304-44.4,304z M-40.8,334.9c0.5,0,0.9,0.4,0.9,0.9s-0.4,0.9-0.9,0.9c-0.5,0-0.9-0.4-0.9-0.9
	S-41.3,334.9-40.8,334.9z M100.7,193.4c0.5,0,0.9,0.4,0.9,0.9c0,0.5-0.4,0.9-0.9,0.9c-0.5,0-0.9-0.4-0.9-0.9
	C99.8,193.8,100.2,193.4,100.7,193.4z M111.1,208c1.8,0,3.3,1.5,3.3,3.3c0,1.8-1.5,3.3-3.3,3.3c-1.8,0-3.3-1.5-3.3-3.3
	C107.8,209.5,109.3,208,111.1,208z M-0.4,373.2c0.9,0,1.6,0.7,1.6,1.6c0,0.9-0.7,1.6-1.6,1.6c-0.9,0-1.6-0.7-1.6-1.6
	C-2,373.9-1.3,373.2-0.4,373.2z M124.7,319.1c3.4,0,6.1,2.7,6.1,6.1c0,3.4-2.7,6.1-6.1,6.1c-3.4,0-6.1-2.7-6.1-6.1
	C118.7,321.8,121.4,319.1,124.7,319.1z M-43.2,251.7c2.2,0,3.9,1.8,3.9,3.9c0,2.2-1.8,3.9-3.9,3.9c-2.2,0-3.9-1.8-3.9-3.9
	C-47.2,253.4-45.4,251.7-43.2,251.7z M-23.4,214.3c0.9,0,1.6,0.7,1.6,1.6c0,0.9-0.7,1.6-1.6,1.6c-0.9,0-1.6-0.7-1.6-1.6
	C-24.9,215-24.2,214.3-23.4,214.3z"/>
<path class="st3" d="M73.4,196.9c21.7,0,39.3,17.6,39.3,39.3c0,21.7-17.6,39.3-39.3,39.3c-21.7,0-39.3-17.6-39.3-39.3
	C34.1,214.5,51.7,196.9,73.4,196.9z"/>
<path class="st4" d="M73.4,201.7c19,0,34.4,15.4,34.4,34.4c0,19-15.4,34.4-34.4,34.4c-19,0-34.4-15.4-34.4-34.4
	C39,217.1,54.4,201.7,73.4,201.7z"/>
<path class="st5" d="M89.5,205.7c5.7,3,10.4,7.5,13.7,13.1c-1.7,1.4-3.8,2.3-6.2,2.3c-5.2,0-9.5-4.3-9.5-9.5
	C87.5,209.3,88.2,207.3,89.5,205.7z M49.8,226.8c5.2,0,9.5,4.3,9.5,9.5c0,5.2-4.3,9.5-9.5,9.5s-9.5-4.3-9.5-9.5
	C40.3,231.1,44.6,226.8,49.8,226.8z M75.7,227.5c5.2,0,9.5,4.3,9.5,9.5c0,5.3-4.3,9.5-9.5,9.5c-5.3,0-9.5-4.3-9.5-9.5
	C66.2,231.8,70.5,227.5,75.7,227.5z"/>
<path class="st6" d="M-56.2,368.5c7-9.3,14-17.8,21.2-25.5c5.7-6.1,16-6.5,22.5-2.2c31.9,20.9,50.3,42.3,62.6,64
	c-5.6,0.8-11.3,1.2-17.2,1.2C-2,406-33.6,391.6-56.2,368.5z"/>
<path class="st7" d="M-18.7,338.3c2.2,0.4,4.4,1.3,6.2,2.5c31.9,20.9,50.3,42.3,62.6,64c-5.6,0.8-11.3,1.2-17.2,1.2
	c-19.2,0-37.4-4.3-53.6-12.1c5.4-3.7,10-8.4,5-17.6C-26.6,356.2-18.7,338.3-18.7,338.3z"/>
<path class="st6" d="M40.6,405.8c12.7-31.4,30.6-64.4,64.9-102.7c1.6-1.8,3.3-3.2,5.1-4.2c13.9,9.7,25.8,22.1,34.9,36.4
	C126.4,375,86.9,403,40.6,405.8z"/>
<path class="st8" d="M117.7,372.9c3.7-8.8,4.4-17.9-3.6-22.2c-14.8-8-4.7-38.8-0.5-49.6c12.7,9.4,23.5,21,32,34.3
	C138.7,349.6,129.2,362.3,117.7,372.9z"/>
<g>
	<path class="st4" d="M-15.9,272.4c0.7,0,1.3,0.6,1.3,1.3c0,0.7-0.6,1.3-1.3,1.3c-0.7,0-1.3-0.6-1.3-1.3
		C-17.2,273-16.6,272.4-15.9,272.4z"/>
	<path class="st4" d="M21.9,293.6c0.7,0,1.3,0.6,1.3,1.3s-0.6,1.3-1.3,1.3c-0.7,0-1.3-0.6-1.3-1.3C20.6,294.2,21.2,293.6,21.9,293.6
		z"/>
	<path class="st4" d="M14.5,268.3c0.7,0,1.3,0.6,1.3,1.3c0,0.7-0.6,1.3-1.3,1.3c-0.7,0-1.3-0.6-1.3-1.3
		C13.2,268.9,13.8,268.3,14.5,268.3z"/>
	<path class="st4" d="M50.6,294.8c0.7,0,1.3,0.6,1.3,1.3c0,0.7-0.6,1.3-1.3,1.3c-0.7,0-1.3-0.6-1.3-1.3
		C49.3,295.4,49.9,294.8,50.6,294.8z"/>
	<path class="st4" d="M-14,303.4c0.7,0,1.3,0.6,1.3,1.3c0,0.7-0.6,1.3-1.3,1.3c-0.7,0-1.3-0.6-1.3-1.3
		C-15.3,304-14.7,303.4-14,303.4z"/>
	<path class="st4" d="M34.6,335.4c0.7,0,1.3,0.6,1.3,1.3c0,0.7-0.6,1.3-1.3,1.3c-0.7,0-1.3-0.6-1.3-1.3
		C33.4,335.9,33.9,335.4,34.6,335.4z"/>
	<path class="st4" d="M61.2,315.2c0.7,0,1.3,0.6,1.3,1.3c0,0.7-0.6,1.3-1.3,1.3c-0.7,0-1.3-0.6-1.3-1.3
		C59.9,315.8,60.5,315.2,61.2,315.2z"/>
	<path class="st4" d="M13.5,319.4c0.7,0,1.3,0.6,1.3,1.3c0,0.7-0.6,1.3-1.3,1.3c-0.7,0-1.3-0.6-1.3-1.3
		C12.2,320,12.8,319.4,13.5,319.4z"/>
	<path class="st4" d="M-66.3,296.5c0.7,0,1.3,0.6,1.3,1.3s-0.6,1.3-1.3,1.3c-0.7,0-1.3-0.6-1.3-1.3C-67.6,297.1-67,296.5-66.3,296.5
		z"/>
	<path class="st4" d="M86,292.4c0.7,0,1.3,0.6,1.3,1.3s-0.6,1.3-1.3,1.3c-0.7,0-1.3-0.6-1.3-1.3C84.7,292.9,85.3,292.4,86,292.4z"/>
	<path class="st4" d="M9.6,231.9c0.7,0,1.3,0.6,1.3,1.3c0,0.7-0.6,1.3-1.3,1.3c-0.7,0-1.3-0.6-1.3-1.3
		C8.3,232.4,8.9,231.9,9.6,231.9z"/>
	<path class="st4" d="M-60.4,235.6c0.7,0,1.3,0.6,1.3,1.3c0,0.7-0.6,1.3-1.3,1.3c-0.7,0-1.3-0.6-1.3-1.3
		C-61.7,236.2-61.1,235.6-60.4,235.6z"/>
</g>
</svg>
