<?xml version="1.0" encoding="utf-8"?>
<!-- Generator: Adobe Illustrator 19.0.0, SVG Export Plug-In . SVG Version: 6.00 Build 0)  -->
<svg version="1.1" id="Layer_1" xmlns="http://www.w3.org/2000/svg" xmlns:xlink="http://www.w3.org/1999/xlink" x="0px" y="0px"
	 viewBox="-92 156 250 250" style="enable-background:new -92 156 250 250;" xml:space="preserve">
<style type="text/css">
	.st0{fill:#FEE9C1;}
	.st1{fill:#FEEBC7;}
	.st2{fill:#FEEFD2;}
	.st3{fill:#FEF5E5;}
	.st4{fill:#FFB54C;}
	.st5{fill:#FFCB7F;}
	.st6{fill:#FFFFFF;}
	.st7{fill:#DFF5F9;}
	.st8{fill:#9FD2D9;}
	.st9{fill:#44BAC9;}
	.st10{fill:#22B1C3;}
</style>
<path class="st0" d="M-91.5,284.8v3.1c0,7.8,0.6,9.5,1.7,14.2h0.1c9.4,55.1,54.9,97.8,111.2,103l0.5,0c0.7,0,1.5,0.1,2.2,0.2l1,0
	c0.6,0,1.3,0.1,1.9,0.1c0.4,0,0.8,0,1.2,0c0.6,0,1.1,0,1.7,0c0.7,0,1.3,0,2,0c0.3,0,0.6,0,1,0h0.1c0.9,0,1.8,0,2.8,0h0.4
	c0.9,0,1.8,0,2.6-0.1l0.7,0c0.8,0,1.6-0.1,2.3-0.1l1.1-0.1c0.5,0,1-0.1,1.5-0.1c55.8-5.2,101-47.3,110.8-101.8
	c1.2-4.7,1.2-6.1,1.8-13.5l0,0h0.1l0,0l0,0c0-0.5,0-0.9,0-1.4v0v0v0v0v0v0l0,0v0v0v-0.1v0v0v0v0l0,0l0,0v0v0v0v0v0v0
	c0.8-9.3-0.4-24.5-3.6-36.4l-0.1-0.6c-13.5-54.1-62.4-94.2-120.7-94.2c-59.7,0-109.6,42.1-121.7,98.2l0,0c0,0,0,0.1,0,0.1l-0.2,0.8
	l-0.1,0.5l-0.2,0.8c-1.6,6.4-2,14-2.2,20.6c0,1.2,0,2.5,0,3.7v0.2C-91.5,282.4-91.5,283.6-91.5,284.8z"/>
<path class="st1" d="M-72.4,284.1v2.6c0,6.6,0.5,8.1,1.4,12h0c7.9,46.6,46.4,82.8,94.1,87.2l0.4,0c0.6,0,1.3,0.1,1.9,0.1l0.8,0
	c0.5,0,1.1,0,1.6,0.1c0.3,0,0.7,0,1,0c0.5,0,1,0,1.5,0c0.5,0,1.1,0,1.7,0c0.3,0,0.5,0,0.8,0h0.1c0.8,0,1.6,0,2.3,0h0.4
	c0.7,0,1.5,0,2.2-0.1l0.6,0c0.6,0,1.3-0.1,2-0.1l0.9,0c0.4,0,0.8-0.1,1.3-0.1c47.3-4.4,85.5-40.1,93.8-86.1c1-4,1-5.2,1.5-11.5l0,0
	h0.1l0,0l0,0c0-0.4,0-0.8,0-1.2v0v0v0v0v0v0l0,0v0v0v0l0,0v0v0v0l0,0v0v0v0v0v0v0v0c0.7-7.9-0.3-20.8-3-30.8l-0.1-0.5
	c-11.5-45.8-52.9-79.8-102.2-79.8c-50.5,0-92.7,35.6-103,83.1l0,0c0,0,0,0,0,0.1l-0.2,0.6l-0.1,0.4l-0.2,0.7
	c-1.3,5.4-1.7,11.8-1.9,17.4c0,1,0,2.1,0,3.1v0.2C-72.4,282.2-72.4,283.2-72.4,284.1z"/>
<path class="st2" d="M-34.5,283v1.7c0,4.3,0.3,5.2,0.9,7.7h0c5.1,29.9,29.8,53.1,60.4,55.9H27c0.4,0,0.8,0,1.2,0.1l0.5,0
	c0.3,0,0.7,0,1,0c0.2,0,0.4,0,0.7,0c0.3,0,0.6,0,0.9,0c0.3,0,0.7,0,1.1,0c0.2,0,0.3,0,0.5,0h0c0.5,0,1,0,1.5,0h0.2c0.5,0,1,0,1.4,0
	h0.4c0.4,0,0.8,0,1.3-0.1l0.6,0c0.3,0,0.5,0,0.8-0.1c30.3-2.8,54.8-25.7,60.2-55.3c0.6-2.5,0.6-3.3,1-7.3l0,0h0.1l0,0l0,0
	c0-0.2,0-0.5,0-0.7l0,0l0,0l0,0v-0.1l0,0l0,0l0,0l0,0l0,0v0l0,0l0,0l0,0l0,0l0,0l0,0l0,0l0,0l0,0l0,0l0,0l0,0c0.4-5-0.2-13.4-2-19.8
	l-0.1-0.3c-7.3-29.4-33.9-51.1-65.5-51.1c-32.4,0-59.5,22.9-66,53.3l0,0v0l-0.1,0.4l0,0.2l-0.1,0.4c-0.8,3.5-1.1,7.6-1.2,11.2
	c0,0.7,0,1.3,0,2v0.1C-34.5,281.7-34.5,282.4-34.5,283z"/>
<path class="st3" d="M0.9,281.9v0.8c0,2,0.1,2.4,0.4,3.7l0,0c2.4,14.2,14.2,25.3,28.7,26.6h0.1c0.2,0,0.4,0,0.6,0H31
	c0.1,0,0.3,0,0.5,0c0.1,0,0.2,0,0.3,0s0.3,0,0.4,0c0.1,0,0.3,0,0.5,0c0.1,0,0.1,0,0.2,0h0.1c0.2,0,0.5,0,0.7,0h0.1
	c0.2,0,0.4,0,0.7,0h0.2c0.2,0,0.4,0,0.6,0h0.3c0.1,0,0.2,0,0.4,0c14.4-1.4,26.1-12.2,28.6-26.3c0.3-1.2,0.3-1.6,0.5-3.5l0,0h0l0,0
	l0,0c0-0.1,0-0.2,0-0.3l0,0l0,0l0,0l0,0l0,0l0,0l0,0l0,0l0,0v0l0,0l0,0l0,0l0,0l0,0l0,0l0,0l0,0l0,0l0,0l0,0l0,0
	c0.2-2.4-0.1-6.4-0.9-9.4l0-0.1c-3.5-14-16.1-24.3-31.2-24.3c-15.4,0-28.3,10.9-31.4,25.4l0,0c0,0,0,0,0,0l0,0.2l0,0.1l0,0.2
	c-0.4,1.7-0.5,3.6-0.5,5.3c0,0.3,0,0.6,0,1v0C0.9,281.3,0.9,281.6,0.9,281.9z"/>
<path class="st4" d="M-68.5,292c0,0,19.2-9.2,23.2-11.5c4.1-2.2,29.1,12,29.1,12L14.6,280c0,0,23.4,12.2,28.9,15.2
	S29.3,301.9,18,301C6.8,300.1-71.2,299.4-68.5,292z"/>
<path class="st5" d="M-92.1,290c7.7-5.3,13.1-11.1,20.9-6.7c7.8,4.4,23.4,9.6,28.5,10.6c5.1,1,16.9-11,27.2-10.6
	c10.4,0.4,30.2,12.3,34.1,11.3s21.8-18.4,30-16.5c8.3,1.9,13.8,17.9,23,15.7c9.2-2.2,44.8-25.3,53.4-22c8.7,3.3,21.6,12.6,32.8,18
	c-0.6,7.4-0.6,8.9-1.8,13.6c-0.9,5.3-2.3,10.4-3.8,15.4L-84,325.3C-87.6,315.8-91.9,300.2-92.1,290z"/>
<g>
	<path class="st6" d="M134.7,228.7c1.3,0,2.5,0.2,3.5,0.6c1.2-0.8,2.7-1.2,4.5-1.2c1.6,0,3.1,0.4,4.2,1.1c1.6,3.6,3.1,7.3,4.4,11.1
		c-0.3,0-0.6-0.1-1-0.3c-0.6,1.4-2.5,2.4-4.8,2.4c-1.4,0-2.7-0.4-3.6-1c-0.9,0.6-2.2,1-3.6,1c-1.3,0-2.5-0.3-3.4-0.9
		c-0.9,0.7-2.3,1.1-3.7,1.1c-1.4,0-2.6-0.4-3.5-1c-0.4,0-0.8,0.1-1.3,0.1c-3.3,0-6-1.8-6-4.1c0-2.3,2.7-4.1,6-4.1c0.2,0,0.3,0,0.5,0
		C127.3,230.8,130.6,228.7,134.7,228.7z"/>
	<path class="st6" d="M69.9,196.2c2.3,0,4.5,0.4,6.3,1c2.1-1.4,4.9-2.2,8-2.2c5.4,0,9.9,2.5,11.1,6c2.7,0.5,4.8,2,5.8,3.7
		c0.3,0,0.6,0,1,0c5,0,9,2.7,9,6.1s-4.1,6.2-9,6.2c-1.6,0-3-0.2-4.3-0.7c-1.1,2.5-4.5,4.4-8.7,4.4c-2.5,0-4.8-0.7-6.4-1.8
		c-1.6,1.1-3.9,1.8-6.4,1.8c-2.4,0-4.5-0.6-6.2-1.7c-1.7,1.2-4,2-6.7,2c-2.4,0-4.7-0.7-6.3-1.8c-0.7,0.1-1.5,0.1-2.3,0.1
		c-5.9,0-10.8-3.3-10.8-7.3c0-4.1,4.8-7.3,10.8-7.3c0.3,0,0.6,0,1,0C56.6,200,62.6,196.2,69.9,196.2z"/>
	<path class="st6" d="M-29.5,240.8c1.3,0,2.5,0.2,3.5,0.6c1.2-0.8,2.7-1.2,4.5-1.2c3,0,5.5,1.4,6.2,3.3c1.5,0.3,2.7,1.1,3.3,2.1
		c0.2,0,0.3,0,0.5,0c2.8,0,5,1.5,5,3.4c0,1.9-2.3,3.4-5,3.4c-0.9,0-1.7-0.1-2.4-0.4c-0.6,1.4-2.5,2.4-4.8,2.4c-1.4,0-2.7-0.4-3.6-1
		c-0.9,0.6-2.2,1-3.6,1c-1.3,0-2.5-0.3-3.4-0.9c-0.9,0.7-2.3,1.1-3.7,1.1c-1.4,0-2.6-0.4-3.5-1c-0.4,0-0.8,0.1-1.3,0.1
		c-3.3,0-6-1.8-6-4.1s2.7-4.1,6-4.1c0.2,0,0.3,0,0.5,0C-36.8,242.8-33.5,240.8-29.5,240.8z"/>
</g>
<path d="M42.9,189.6c0,0,2.8-0.6,5.1-0.1c2.3,0.4,4.7,2.4,7.4,2.5c2.6,0.1,2.1-0.8,2.1-0.8s-1.7,0.2-2.2-1.2
	c-0.4-1.4,1.4-2.6,4.2-4.6c2.8-2,3.4-4,2.8-5.2c0,0-0.5,0.8-2.8,2.1c-2.3,1.2-4,3.5-5.8,5.1c-1.8,1.7-2,1.8-3.7,1.4
	C48.3,188.5,44.6,187.9,42.9,189.6z"/>
<path class="st7" d="M-89.8,305.1c58.6,7.6,107.9-0.9,174.2,12.7c23.2,4.7,47.7-10.9,71.4-12.8c0.1-0.6,0.2-1.1,0.3-1.7l0.3-1.5
	c-23.8,1.7-48.5,17.6-71.8,12.8C18,301-31.5,309.7-90.5,301.9l0,0.3h0.1C-90.2,303.1-90,304.2-89.8,305.1z"/>
<g>
	<path d="M-9.5,211.3c0,0,2.8-0.6,5.1-0.1c2.3,0.4,4.7,2.4,7.4,2.5c2.6,0.1,2.1-0.8,2.1-0.8s-1.7,0.2-2.2-1.2
		c-0.4-1.4,1.4-2.6,4.2-4.6c2.8-2,3.4-4,2.8-5.2c0,0-0.5,0.8-2.8,2.1c-2.3,1.2-4,3.5-5.8,5.1c-1.8,1.7-1.9,1.8-3.7,1.4
		C-4.1,210.1-7.8,209.6-9.5,211.3z"/>
	<path d="M80.7,239.9c0,0,2.8-0.6,5.1-0.1c2.3,0.4,4.7,2.4,7.4,2.5s2.1-0.8,2.1-0.8s-1.7,0.2-2.2-1.2c-0.4-1.4,1.4-2.6,4.2-4.6
		c2.8-2,3.4-4,2.8-5.2c0,0-0.5,0.8-2.8,2.1c-2.3,1.2-4,3.5-5.8,5.1c-1.8,1.6-2,1.7-3.7,1.4C86.2,238.7,82.5,238.2,80.7,239.9z"/>
</g>
<path class="st8" d="M156.4,302c-0.1,0.4-0.2,0.8-0.3,1.3L156.4,302z M155.8,305c-10.5,53.9-55.5,95.4-111,100.6
	c-0.5,0-1,0.1-1.5,0.1l-1.1,0.1c-0.8,0-1.6,0.1-2.3,0.1l-0.7,0c-0.9,0-1.8,0.1-2.6,0.1H36c-0.9,0-1.9,0-2.8,0H33c-0.3,0-0.6,0-1,0
	c-0.7,0-1.3,0-2,0c-0.6,0-1.1,0-1.7,0c-0.4,0-0.8,0-1.2,0c-0.6,0-1.3,0-1.9-0.1l-1,0c-0.7,0-1.5-0.1-2.3-0.2l-0.5,0
	c-55.6-5.1-100.6-46.6-111.2-100.5c58.6,7.6,107.9-0.9,174.2,12.7C107.6,322.6,132.1,307,155.8,305z"/>
<path class="st9" d="M150,325.4c-16.6,43.8-56.9,75.8-105.2,80.3c-0.5,0-1,0.1-1.5,0.1l-1.1,0.1c-0.8,0-1.6,0.1-2.3,0.1l-0.7,0
	c-0.9,0-1.8,0.1-2.6,0.1H36c-0.9,0-1.9,0-2.8,0H33c-0.3,0-0.6,0-1,0c-0.7,0-1.3,0-2,0c-0.6,0-1.1,0-1.7,0c-0.4,0-0.8,0-1.2,0
	c-0.6,0-1.3,0-1.9-0.1l-1,0c-0.7,0-1.5-0.1-2.3-0.2l-0.5,0c-48.4-4.5-88.8-36.5-105.4-80.3c27.3,0,58.6-12.4,82,0
	C46.8,341.5,98.3,320.3,150,325.4z"/>
<path class="st10" d="M125.6,365.1c-20.4,22.5-48.9,37.6-80.9,40.6c-0.5,0-1,0.1-1.5,0.1l-1.1,0.1c-0.8,0-1.6,0.1-2.3,0.1l-0.7,0
	c-0.9,0-1.8,0.1-2.6,0.1H36c-0.9,0-1.9,0-2.8,0H33c-0.3,0-0.6,0-1,0c-0.7,0-1.3,0-2,0c-0.6,0-1.1,0-1.7,0c-0.4,0-0.8,0-1.2,0
	c-0.6,0-1.3,0-1.9-0.1l-1,0c-0.7,0-1.5-0.1-2.3-0.2l-0.5,0c-32-2.9-60.6-18-81.1-40.6C6,351.8,58.9,376.3,125.6,365.1z"/>
<path class="st7" d="M-23.9,345.2c17.2,0,31.2,0.4,31.2,0.8c0,0.4-13.9,0.8-31.2,0.8s-31.2-0.4-31.2-0.8
	C-55.1,345.6-41.2,345.2-23.9,345.2z M105.5,383c1.3-0.9,2.5-1.9,3.8-2.8c-18.1,0.1-31.9,0.7-31.9,1.4S89.3,382.8,105.5,383z
	 M145.1,336.5c0.6-1.3,1.3-2.6,1.9-3.9c-10.5,0.3-17.8,1.1-17.8,2C129.2,335.4,135.7,336.1,145.1,336.5z M14.7,368.2
	c11.6,0,21.1,0.5,21.1,1.1s-9.4,1.1-21.1,1.1s-21.1-0.5-21.1-1.1C-6.3,368.7,3.1,368.2,14.7,368.2z M83.9,358.3
	c10.4,0,18.7,0.4,18.7,0.9c0,0.5-8.4,0.9-18.7,0.9c-10.4,0-18.7-0.4-18.7-0.9C65.2,358.7,73.6,358.3,83.9,358.3z M15.4,383.2
	c21.1,0,38.3,0.7,38.3,1.6s-17.1,1.6-38.3,1.6s-38.3-0.7-38.3-1.6C-22.8,384-5.7,383.2,15.4,383.2z M71.1,343.8
	c27.1,0,49.2,0.6,49.2,1.5c0,0.8-22,1.5-49.2,1.5s-49.2-0.6-49.2-1.5C22,344.4,44,343.8,71.1,343.8z M57.3,318.8
	c14.2,0,25.7,0.4,25.7,0.9c0,0.5-11.5,0.9-25.7,0.9s-25.7-0.4-25.7-0.9C31.6,319.2,43.2,318.8,57.3,318.8z M-34.5,314.4
	c16.5,0,29.9,0.3,29.9,0.6c0,0.3-13.4,0.6-29.9,0.6c-16.5,0-29.9-0.3-29.9-0.6C-64.4,314.7-51,314.4-34.5,314.4z"/>
</svg>
