<?xml version="1.0" encoding="utf-8"?>
<!-- Generator: Adobe Illustrator 19.0.0, SVG Export Plug-In . SVG Version: 6.00 Build 0)  -->
<svg version="1.1" id="Capa_1" xmlns="http://www.w3.org/2000/svg" xmlns:xlink="http://www.w3.org/1999/xlink" x="0px" y="0px"
	 viewBox="17 265 32 32" style="enable-background:new 17 265 32 32;" xml:space="preserve">
<style type="text/css">
	.st0{fill:#B26483;}
	.st1{opacity:0.35;}
	.st2{fill:#FF7998;}
	.st3{fill:#FF4F70;}
	.st4{fill:#674447;}
	.st5{fill:#4F3639;}
</style>
<g>
	<g>
		<circle class="st0" cx="33" cy="281" r="16"/>
	</g>
	<g class="st1">
		<circle class="st2" cx="30.2" cy="282" r="9.5"/>
	</g>
	<g>
		<path class="st3" d="M48,287H25.5l5,6.8c0,0,3.9,1.8,6.9,3C42.3,295.4,46.3,291,48,287z"/>
	</g>
	<g>
		<path class="st4" d="M33,297c4.3,0,8.1-1.7,11-4.4c-2.2-0.1-2.7-0.5-6.6-0.5c-1.6,0-5.9,1.5-7.5-1.6c-1.3-2.4-3.5-4.4-5.4-4.8
			c-1.6-0.4-2-1.9-2.1-3.8c-0.1-1.9-1.7-2-2.7-3.2c-0.9-1.2-0.9-2.5-1.9-2.7c-0.5,1.6-0.8,3.2-0.8,5C17,289.8,24.2,297,33,297z"/>
	</g>
	<path class="st4" d="M37.9,273.2c-0.1-0.1-0.2-0.2-0.4-0.1l-7,1.1c-0.3,0-0.5,0.3-0.5,0.5v2.2v3.1h-0.9c-1.2,0-2.2,1.1-2.2,2.2
		c0,1.1,0.8,2.1,2.1,2.1c1.2,0,2-0.8,2-1.9v-1.5v-3.6l6-0.9v3.5h-1c-1.2,0-2.2,0.6-2.2,1.7c0,1.1,0.9,1.9,2.1,1.9
		c1.2,0,2.1-1,2.1-2.1V280v-4.2v-2.2C38,273.5,38,273.3,37.9,273.2z"/>
</g>
<g>
	<path class="st5" d="M28.4,268.9c0,0,0.4-0.1,0.7,0c0.3,0.1,0.6,0.3,0.9,0.3c0.3,0,0.3-0.1,0.3-0.1s-0.2,0-0.3-0.2
		c-0.1-0.2,0.2-0.3,0.5-0.6c0.4-0.3,0.4-0.5,0.4-0.7c0,0-0.1,0.1-0.4,0.3c-0.3,0.2-0.5,0.4-0.7,0.7c-0.2,0.2-0.2,0.2-0.5,0.2
		C29,268.7,28.6,268.7,28.4,268.9z"/>
	<path class="st5" d="M39.9,272.5c0,0,0.4-0.1,0.7,0c0.3,0.1,0.6,0.3,0.9,0.3c0.3,0,0.3-0.1,0.3-0.1s-0.2,0-0.3-0.2
		c-0.1-0.2,0.2-0.3,0.5-0.6c0.4-0.3,0.4-0.5,0.4-0.7c0,0-0.1,0.1-0.4,0.3c-0.3,0.2-0.5,0.4-0.7,0.7c-0.2,0.2-0.3,0.2-0.5,0.2
		C40.6,272.4,40.1,272.3,39.9,272.5z"/>
</g>
</svg>
