<?xml version="1.0" encoding="utf-8"?>
<!-- Generator: Adobe Illustrator 19.0.0, SVG Export Plug-In . SVG Version: 6.00 Build 0)  -->
<svg version="1.1" id="Layer_1" xmlns="http://www.w3.org/2000/svg" xmlns:xlink="http://www.w3.org/1999/xlink" x="0px" y="0px"
	 viewBox="-92 156 250 250" style="enable-background:new -92 156 250 250;" xml:space="preserve">
<style type="text/css">
	.st0{fill:#FDC656;}
	.st1{fill:#F85A55;}
	.st2{fill:#80D0B5;}
</style>
<path class="st0" d="M60.9,332.1c0,11.4-8.1,20.9-18.9,23.1v-9.8c0,0,0,0,0,0v-20.1c0-2.7-2.2-4.8-4.8-4.8c-2.7,0-4.8,2.2-4.8,4.8
	v8.5l-1.9-1.9c-1.9-1.9-5-1.9-6.9,0c-1.9,1.9-1.9,4.9,0,6.8l8.8,8.7v7.8c-10.8-2.2-18.9-11.8-18.9-23.1c0-13,10.7-23.6,23.8-23.6
	c0.4,0,1.2,0,1.3,0C50.9,309.1,60.9,319.5,60.9,332.1z"/>
<path class="st1" d="M140.6,330.6c0.4,1.3-0.2,2.3-0.6,2.8c-0.4,0.5-1.2,1.2-2.5,1.2h-35v-13v0v-16.3l11.9-11.8
	c2.1-2.1,2.1-5.5,0-7.6c-2.1-2.1-5.5-2.1-7.6,0l-4.3,4.3v-14.9c0-3-2.4-5.4-5.4-5.4c-3,0-5.4,2.4-5.4,5.4v27.8c0,0,0,0,0,0v5.6
	l-8.8-8.7c-2.1-2.1-5.5-2.1-7.6,0c-2.1,2.1-2.1,5.5,0,7.6l16.4,16.3v10.8H71.5c0.1-0.8,0.1-1.7,0.1-2.6c0-8.5-3.1-16.3-8.3-22.3
	l32.7-121.7c0.6-2.1,2.4-2.4,3.1-2.4s2.5,0.2,3.1,2.4L140.6,330.6z"/>
<path class="st2" d="M41.3,272.1c0,8.9-2.1,17.8-6.1,25.7C19,298.7,5.7,310.7,3.1,326.3c-4.7,1.7-9.5,2.8-14.4,3.2v-18.2v0v-20.6
	l15-14.9c2.1-2.1,2.1-5.5,0-7.6c-2.1-2.1-5.5-2.1-7.6,0l-7.4,7.4v-17.2c0-3-2.4-5.4-5.4-5.4c-3,0-5.4,2.4-5.4,5.4v30.1c0,0,0,0,0,0
	v9.9l-12.9-12.9c-2.1-2.1-5.5-2.1-7.6,0c-2.1,2.1-2.1,5.5,0,7.6l20.6,20.4v16c-29.5-2.7-52.6-27.4-52.6-57.4c0-31.8,26-57.7,58-57.7
	C15.2,214.4,41.3,240.3,41.3,272.1z"/>
<path d="M151,327.9c1.1,4.2,0.3,8.6-2.4,12c-2.7,3.5-6.7,5.4-11.1,5.4h-35v38.9h5.9c3,0,5.4,2.4,5.4,5.4c0,3-2.4,5.4-5.4,5.4H-39.9
	c-3,0-5.4-2.4-5.4-5.4c0-3,2.4-5.4,5.4-5.4h17.8v-44c-35.4-2.7-63.4-32.3-63.4-68.2c0-37.7,30.8-68.4,68.8-68.4
	c37.9,0,68.8,30.7,68.8,68.4c0,9.3-1.9,18.5-5.6,26.9c2.7,0.8,5.3,1.9,7.8,3.2l31.5-117c1.7-6.2,7.1-10.3,13.5-10.3
	c6.4,0,11.8,4.1,13.5,10.3L151,327.9z M140.1,333.4c0.4-0.5,0.9-1.4,0.6-2.8l-38.3-142.6c-0.6-2.1-2.4-2.4-3.1-2.4s-2.5,0.2-3.1,2.4
	L63.4,309.8c5.2,6,8.3,13.8,8.3,22.3c0,0.9,0,1.7-0.1,2.6h20.3v-10.8l-16.4-16.3c-2.1-2.1-2.1-5.5,0-7.6c2.1-2.1,5.5-2.1,7.6,0
	l8.8,8.7v-5.6c0,0,0,0,0,0v-27.8c0-3,2.4-5.4,5.4-5.4c3,0,5.4,2.4,5.4,5.4v14.9l4.3-4.3c2.1-2.1,5.5-2.1,7.6,0
	c2.1,2.1,2.1,5.5,0,7.6l-11.9,11.8v16.3v0v13h35C138.9,334.6,139.7,333.8,140.1,333.4z M91.8,384.3v-38.9H69
	c-4.6,10.9-14.8,19-27,20.7v18.2H91.8L91.8,384.3z M42,355.2c10.8-2.2,18.9-11.8,18.9-23.1c0-12.6-10-22.9-22.5-23.6
	c0,0-0.9,0-1.3,0c-13.1,0-23.8,10.6-23.8,23.6c0,11.4,8.1,20.9,18.9,23.1v-7.8l-8.8-8.7c-1.9-1.9-1.9-4.9,0-6.8c1.9-1.9,5-1.9,6.9,0
	l1.9,1.9v-8.5c0-2.7,2.2-4.8,4.8-4.8s4.8,2.2,4.8,4.8v20.1c0,0,0,0,0,0L42,355.2L42,355.2z M35.2,297.8c4-7.9,6.1-16.8,6.1-25.7
	c0-31.8-26-57.7-58-57.7c-32,0-58,25.9-58,57.7c0,30,23.1,54.7,52.6,57.4v-16l-20.6-20.4c-2.1-2.1-2.1-5.5,0-7.6
	c2.1-2.1,5.5-2.1,7.6,0l12.9,12.9v-9.9c0,0,0,0,0,0v-30.1c0-3,2.4-5.4,5.4-5.4c3,0,5.4,2.4,5.4,5.4v17.2l7.4-7.4
	c2.1-2.1,5.5-2.1,7.6,0c2.1,2.1,2.1,5.5,0,7.6l-15,14.9v20.6v0v18.2c4.9-0.4,9.8-1.5,14.4-3.2C5.7,310.7,19,298.7,35.2,297.8z
	 M32.3,384.3v-18.2C17.3,364,5.4,352.3,3,337.6c-4.7,1.4-9.5,2.3-14.4,2.7v44H32.3L32.3,384.3z"/>
</svg>
