<?xml version="1.0" encoding="utf-8"?>
<!-- Generator: Adobe Illustrator 19.0.0, SVG Export Plug-In . SVG Version: 6.00 Build 0)  -->
<svg version="1.1" id="Capa_1" xmlns="http://www.w3.org/2000/svg" xmlns:xlink="http://www.w3.org/1999/xlink" x="0px" y="0px"
	 viewBox="-451 253 56 56" style="enable-background:new -451 253 56 56;" xml:space="preserve">
<style type="text/css">
	.st0{fill:#FFFFFF;}
</style>
<g>
	<path class="st0" d="M-398.5,295.1l-13.7-40.7c-0.1-0.4-0.6-0.7-1-0.7s-0.9,0.3-1,0.7l-6.5,19.3c-2.8-3.3-7-5.4-11.6-5.4
		c-8.4,0-15.2,6.8-15.2,15.2c0,8,6.2,14.6,14.1,15.2v8.7c0,0.6,0.5,1.1,1.1,1.1c0.6,0,1.1-0.5,1.1-1.1v-8.7c2.4-0.2,4.7-0.9,6.7-2.1
		h10.7v10.9c0,0.6,0.5,1.1,1.1,1.1s1.1-0.5,1.1-1.1v-10.9h12.3c0.3,0,0.7-0.2,0.9-0.5C-398.4,295.7-398.3,295.4-398.5,295.1z
		 M-431.3,292.6l2.9-2.9c0.4-0.4,0.4-1.1,0-1.5c-0.4-0.4-1.1-0.4-1.5,0l-2.5,2.5l-2.5-2.5c-0.4-0.4-1.1-0.4-1.5,0
		c-0.4,0.4-0.4,1.1,0,1.5l2.9,2.9v3.8c-6.7-0.6-12-6.2-12-13c0-7.2,5.8-13,13-13c4.7,0,8.9,2.5,11.2,6.3c0.4,0.7,0.7,1.4,1,2.1
		c0,0.1,0.1,0.3,0.1,0.4c0.1,0.2,0.1,0.4,0.2,0.6c0.1,0.2,0.1,0.5,0.2,0.8c0,0.2,0.1,0.4,0.1,0.6c0,0.3,0.1,0.5,0.1,0.8
		c0,0.1,0,0.2,0,0.4c0,0.4,0.1,0.8,0.1,1.2c0,0.5,0,1-0.1,1.5c0,0.2,0,0.3-0.1,0.5c-0.1,0.3-0.1,0.7-0.2,1c0,0.2-0.1,0.4-0.1,0.5
		c-0.1,0.3-0.2,0.6-0.3,0.9c-0.1,0.2-0.1,0.3-0.2,0.5c-0.2,0.4-0.4,0.9-0.6,1.3c-0.1,0.1-0.2,0.2-0.2,0.4c-0.2,0.3-0.4,0.6-0.6,0.9
		c-0.1,0.1-0.2,0.3-0.3,0.4c-0.2,0.3-0.4,0.5-0.7,0.8c-0.1,0.1-0.2,0.2-0.3,0.3c-0.7,0.7-1.5,1.4-2.4,2c-1.7,1.1-3.7,1.8-5.9,2
		L-431.3,292.6L-431.3,292.6z M-411.8,294.3v-1.7l2.9-2.9c0.4-0.4,0.4-1.1,0-1.5c-0.4-0.4-1.1-0.4-1.5,0l-2.5,2.5l-2.5-2.5
		c-0.4-0.4-1.1-0.4-1.5,0c-0.4,0.4-0.4,1.1,0,1.5l2.9,2.9v1.7h-7.8c0,0,0,0,0,0c0.2-0.2,0.4-0.4,0.5-0.6c0.2-0.2,0.3-0.4,0.5-0.6
		c0.1-0.1,0.1-0.2,0.2-0.2c1.8-2.2,2.9-4.9,3.2-7.8c0,0,0-0.1,0-0.1c0.1-0.5,0.1-1,0.1-1.6c0-0.5,0-0.9-0.1-1.4c0-0.1,0-0.3,0-0.4
		c0-0.4-0.1-0.8-0.2-1.2c0-0.1-0.1-0.3-0.1-0.4c-0.1-0.3-0.1-0.5-0.2-0.8c-0.1-0.2-0.1-0.4-0.2-0.6c-0.1-0.2-0.2-0.4-0.2-0.7
		c-0.1-0.3-0.3-0.7-0.4-1c-0.1-0.1-0.1-0.3-0.2-0.4c-0.1-0.2-0.2-0.4-0.4-0.7c0,0,0,0,0-0.1l6-17.8l12.2,36.3L-411.8,294.3
		L-411.8,294.3z"/>
</g>
</svg>
