<?xml version="1.0" encoding="utf-8"?>
<!-- Generator: Adobe Illustrator 19.0.0, SVG Export Plug-In . SVG Version: 6.00 Build 0)  -->
<svg version="1.1" id="Capa_1" xmlns="http://www.w3.org/2000/svg" xmlns:xlink="http://www.w3.org/1999/xlink" x="0px" y="0px"
	 viewBox="-92 156 250 250" style="enable-background:new -92 156 250 250;" xml:space="preserve">
<style type="text/css">
	.st0{fill:#9AF4EF;}
	.st1{opacity:0.3;}
	.st2{fill:#FFFFF4;}
	.st3{fill:#36B294;}
	.st4{opacity:0.4;}
	.st5{fill:#674447;}
	.st6{fill:#43AB5F;}
	.st7{fill:#71BE63;}
	.st8{opacity:0.6;}
	.st9{fill:#FFFFFF;}
	.st10{fill:#00A07D;}
	.st11{fill:#94D75B;}
	.st12{fill:#B0EB81;}
</style>
<g>
	<g>
		<circle class="st0" cx="33" cy="281" r="125"/>
	</g>
	<g class="st1">
		<path class="st2" d="M106.9,180.2C51.6,195,10.8,245.4,10.8,305.4c0,39.4,17.6,74.6,45.3,98.4C114.1,393,158,342.1,158,281
			C158,239.6,137.9,203,106.9,180.2z"/>
	</g>
	<g>
		<path class="st3" d="M13,260.5C7.5,256-0.4,260-4.7,256.3c-5.7-4.9-7-6.2-12.2-7.5c-4.8-1.2-9.1,1.5-13.7-4.6
			c-3.3-4.4-6.4-3.9-10.4-3s-5.2-0.1-10.6-4.5c-3.5-2.9-6.8-4-14.1-3.7c-6.2,0.2-11-1.2-15.6-2.9c-4.3,9.7-7.5,20.1-9.2,31
			c17.7,1.9,23,1,29.9,3.3c7.6,2.4,81.1,17.3,82.4,16.6c1.3-0.7,2.2-12.4,2.2-12.4C16.7,267.3,16.6,263.5,13,260.5z"/>
	</g>
	<g class="st4">
		<path class="st2" d="M83.1,305.4c0,27.6,19.5,50.6,45.5,56.1c18.3-21.7,29.4-49.8,29.4-80.5c0-10.8-1.4-21.2-3.9-31.2
			c-4.4-1.1-8.9-1.7-13.7-1.7C108.8,248.1,83.1,273.8,83.1,305.4z"/>
	</g>
	<g>
		<g>
			<g>
				<path class="st5" d="M114.3,291.3c-1.4,0-2.5-1.1-2.5-2.5v-26.6c0-1.4,1.1-2.5,2.5-2.5c1.4,0,2.5,1.1,2.5,2.5v26.6
					C116.8,290.2,115.7,291.3,114.3,291.3z"/>
			</g>
		</g>
		<g>
			<g>
				<path class="st6" d="M129.8,260c0,8.6-7,15.5-15.5,15.5s-15.5-7-15.5-15.5s7-35,15.5-35C122.9,225,129.8,251.4,129.8,260z"/>
			</g>
		</g>
		<g>
			<g>
				<path class="st7" d="M114.3,225c-2.2,0-4.2,1.7-6.1,4.3h0c7.9,0,14.2,24.2,14.2,32c0,6.8-4.8,12.5-11.2,13.9
					c1,0.2,2,0.3,3.1,0.3c8.6,0,15.5-7,15.5-15.5C129.8,251.4,122.9,225,114.3,225z"/>
			</g>
		</g>
	</g>
	<g class="st8">
		<path class="st9" d="M-10.6,225.2c0-5.2,4.2-9.4,9.4-9.4c0.8,0,1.5,0.1,2.2,0.3c2.4-2.6,5.9-4.3,9.8-4.3c7.4,0,13.4,6,13.4,13.4
			L-10.6,225.2L-10.6,225.2z"/>
	</g>
	<g class="st8">
		<path class="st9" d="M-11.8,187.7c0-4.6,3.7-8.3,8.3-8.3c0.7,0,1.4,0.1,2,0.3c2.2-2.4,5.3-3.8,8.7-3.8c6.6,0,11.9,5.3,11.9,11.9
			H-11.8z"/>
	</g>
	<g class="st8">
		<path class="st9" d="M103.3,197.3c0-3.7-3-6.7-6.7-6.7c-0.6,0-1.1,0.1-1.6,0.2c-1.7-1.9-4.2-3.1-7-3.1c-5.3,0-9.6,4.3-9.6,9.6
			H103.3z"/>
	</g>
	<g>
		<path class="st10" d="M36.8,277.1c-3.3,0-3.8-3.2-4.2-3.9c-3.6-7.3-8-3.9-15.1-3.9c-5.6,0-6.7-8.1-9.8-7.8s-8.1,5.5-12.5,3.9
			c-6.2-2.3-6.4-5.9-12.5-7.8c-5.3-1.7-9.9-0.5-12.5-3.9c-5.1-6.7-8.7,0.6-16.6-3.9c-8.1-4.6-10.6,3.9-16.6,3.9
			c-6.4,0-4.2-7.8-12.5-7.8c-4.7,0-7.5,5.7-13.4,7.4c-2.1,8.9-3.2,18.2-3.2,27.8c0,4.9,0.3,9.8,0.9,14.6c1.9,1.8,4,3.3,6.1,4.2
			c7.4,3.2,163.5,5.9,163.5,5.9v-13c-11.4,0-11.4-7.8-20.8-7.8C45,284.9,46.2,277.1,36.8,277.1z"/>
	</g>
	<g>
		<path class="st11" d="M-39.8,367.7l115.7-62l-2.9-6.3c-28,0-76.6-28.5-165-18.4c0,31.1,11.4,59.6,30.2,81.5
			C-49.9,365.3-39.8,367.7-39.8,367.7z"/>
	</g>
	<g>
		<path class="st12" d="M73,299.4c-25.7,0-68.7-23.9-143.9-20.1c66.8,0.1,107.8,30,128.7,30l5.9-2.2l9.5-7.3L73,299.4z"/>
	</g>
	<g>
		<path class="st9" d="M-4,214.4c-1.1,0-2.2,0.2-3.2,0.5c-3.2-4.6-8.6-7.7-14.7-7.7s-11.4,3-14.7,7.7c-1-0.3-2.1-0.5-3.2-0.5
			c-5.9,0-10.7,4.8-10.7,10.7H6.7C6.7,219.2,1.9,214.4-4,214.4z"/>
	</g>
	<g>
		<path class="st9" d="M79.9,204.5c-1.2,0-2.4,0.2-3.5,0.6c-3.5-5.1-9.4-8.4-16-8.4s-12.5,3.3-16,8.4c-1.1-0.4-2.3-0.6-3.5-0.6
			c-6.5,0-11.7,5.2-11.7,11.7h62.5C91.6,209.7,86.3,204.5,79.9,204.5z"/>
	</g>
	<g>
		<path class="st9" d="M-1.8,196.7c0-6.9,5.6-12.5,12.5-12.5c1,0,2,0.2,3,0.4c3.3-3.5,7.9-5.8,13.1-5.8c9.9,0,17.9,8,17.9,17.9H-1.8
			z"/>
	</g>
	<g>
		<path class="st7" d="M-80.9,332.4C-61.3,375.8-17.7,406,33,406c69,0,125-56,125-125c0-1.3-0.1-2.6-0.1-3.9
			c-77.3,0.4-112.4,54.7-238.8,54.7V332.4z"/>
	</g>
	<g>
		<g>
			<g>
				<path class="st5" d="M78.4,307c-1.5,0-2.8-1.3-2.8-2.8v-30.1c0-1.5,1.3-2.8,2.8-2.8s2.8,1.3,2.8,2.8v30.1
					C81.2,305.8,80,307,78.4,307z"/>
			</g>
		</g>
		<g>
			<g>
				<path class="st6" d="M96,271.5c0,9.7-7.9,17.6-17.6,17.6s-17.6-7.9-17.6-17.6s7.9-39.7,17.6-39.7S96,261.8,96,271.5z"/>
			</g>
		</g>
		<g>
			<g>
				<path class="st7" d="M78.4,231.8c-2.4,0-4.8,1.9-6.9,4.9h0c8.9,0,16.1,27.4,16.1,36.3c0,7.8-5.5,14.2-12.8,15.8
					c1.1,0.2,2.3,0.4,3.5,0.4c9.7,0,17.6-7.9,17.6-17.6C96,261.8,88.2,231.8,78.4,231.8z"/>
			</g>
		</g>
	</g>
	<g>
		<path class="st6" d="M157.7,289.2c-54.9,0.3-133.7,76.3-210.6,82.5C-30.5,392.9-0.3,406,33,406C99.3,406,153.5,354.4,157.7,289.2z
			"/>
	</g>
	<g>
		<circle class="st12" cx="3.5" cy="375.1" r="3.3"/>
	</g>
	<g>
		<circle class="st11" cx="18.7" cy="336.8" r="3.3"/>
	</g>
	<g>
		<circle class="st11" cx="106.8" cy="294" r="3.3"/>
	</g>
	<g>
		<circle class="st7" cx="52.4" cy="380.3" r="3.3"/>
	</g>
	<g>
		<circle class="st12" cx="70" cy="360.1" r="3.3"/>
	</g>
	<g>
		<circle class="st7" cx="33" cy="364.7" r="3.3"/>
	</g>
	<g>
		<circle class="st7" cx="-21.7" cy="378.3" r="3.3"/>
	</g>
	<g>
		<circle class="st12" cx="-18.4" cy="350.8" r="3.3"/>
	</g>
	<g>
		<circle class="st12" cx="36.3" cy="324.6" r="3.3"/>
	</g>
	<g>
		<circle class="st11" cx="-45.1" cy="349.2" r="3.3"/>
	</g>
	<g>
		<circle class="st12" cx="92.8" cy="346" r="3.3"/>
	</g>
	<g>
		<circle class="st12" cx="124.3" cy="336.8" r="3.3"/>
	</g>
	<g>
		<circle class="st7" cx="64" cy="342.7" r="3.3"/>
	</g>
	<g>
		<circle class="st7" cx="92.8" cy="367.7" r="3.3"/>
	</g>
	<g>
		<circle class="st7" cx="102.7" cy="327.9" r="3.3"/>
	</g>
	<g>
		<circle class="st7" cx="124.3" cy="309" r="3.3"/>
	</g>
</g>
</svg>
