<?xml version="1.0" encoding="utf-8"?>
<!-- Generator: Adobe Illustrator 19.0.0, SVG Export Plug-In . SVG Version: 6.00 Build 0)  -->
<svg version="1.1" id="Layer_1" xmlns="http://www.w3.org/2000/svg" xmlns:xlink="http://www.w3.org/1999/xlink" x="0px" y="0px"
	 viewBox="-447 249 64 64" style="enable-background:new -447 249 64 64;" xml:space="preserve">
<g id="Question-mark">
	<circle cx="-415" cy="299.4" r="2"/>
	<path d="M-415.5,262.4c-6.3,0-10.2,3.9-10.2,10.2c0,0.6,0.4,1,1,1c0.6,0,1-0.4,1-1c0-5.2,3-8.2,8.2-8.2c7.9,0,9.1,5.7,9.1,9.1
		c0,3.3-2.7,7-6.3,8.7c-4.1,1.9-3.3,8.5-3.3,8.8c0.1,0.5,0.5,0.9,1,0.9c0,0,0.1,0,0.1,0c0.5-0.1,0.9-0.6,0.9-1.1
		c0-0.1-0.5-5.5,2.2-6.8c4.3-2,7.4-6.4,7.4-10.5C-404.4,266.5-408.5,262.4-415.5,262.4z"/>
</g>
</svg>
