<?xml version="1.0" encoding="utf-8"?>
<!-- Generator: Adobe Illustrator 19.0.0, SVG Export Plug-In . SVG Version: 6.00 Build 0)  -->
<svg version="1.1" id="Capa_1" xmlns="http://www.w3.org/2000/svg" xmlns:xlink="http://www.w3.org/1999/xlink" x="0px" y="0px"
	 viewBox="-575.9 155.9 250 250" style="enable-background:new -575.9 155.9 250 250;" xml:space="preserve">
<style type="text/css">
	.st0{fill:none;stroke:#000000;stroke-width:7;stroke-miterlimit:10;}
	.st1{fill:none;stroke:#000000;stroke-miterlimit:10;}
</style>
<g>
	<g>
		<path class="st0" d="M-420.4,287c-17.6-30.5-16.3-66.6,0-95.1c-16.2,0-32.6,4-47.6,12.7c-32.4,18.7-49.5,53.5-47.3,88.5
			c7.7,0.3,14.9,3,20.8,7.9c5.5-3.1,11.7-4.7,18-4.7c17,0,31.7,11.4,36.3,27.4c12,3.7,20.4,14.7,20.4,27.7c0,13.6-9.4,24.9-22,28.2
			c22.6,5.2,47.2,2.3,68.9-10.2c15-8.7,26.7-20.9,34.8-34.9C-370.8,334.5-402.7,317.5-420.4,287z"/>
		<path class="st0" d="M-418.5,349.9c0-12.2-9.3-22-21.2-23.1c-2.1-16.3-15.8-28.9-32.6-28.9c-8,0-15.3,3-21,7.7
			c-5.4-6.9-13.7-11.4-23.1-11.4c-14.1,0-25.8,9.9-28.7,23c-15.3,1.1-27.4,13.7-27.4,29.2c0,16.2,13.2,29.4,29.4,29.4
			c3.4,0,6.7-0.7,9.8-1.8c5.4,7.3,14,12.2,23.8,12.2c6,0,11.5-1.8,16.2-4.9c5.3,5.1,12.5,8.4,20.5,8.4c11.7,0,21.8-6.9,26.5-16.9
			c1.4,0.3,2.9,0.5,4.5,0.5C-429,373.3-418.5,362.8-418.5,349.9z"/>
		<polygon class="st1" points="-365.5,296.6 -361.6,288 -352.3,286.3 -359.3,279.9 -358,270.6 -366.2,275.2 -374.6,271.1 
			-372.8,280.4 -379.3,287.2 -369.9,288.2 		"/>
		<polygon class="st1" points="-553,273.5 -546.4,270 -539.8,273.6 -541,266.2 -535.5,261 -543,259.8 -546.2,253.1 -549.6,259.8 
			-557,260.8 -551.7,266.1 		"/>
		<polygon class="st1" points="-401.4,256.7 -398.4,262.4 -395.7,256.5 -389.3,255.4 -394.1,251 -393.2,244.6 -398.8,247.8 
			-404.6,245 -403.3,251.3 -407.8,256 		"/>
		<polygon class="st1" points="-370.7,239.8 -368.9,243.3 -367.2,239.7 -363.3,239 -366.2,236.3 -365.7,232.4 -369.1,234.3 
			-372.7,232.6 -371.9,236.5 -374.7,239.3 		"/>
		<polygon class="st1" points="-511.6,216.2 -509.7,219.7 -508.1,216.1 -504.1,215.4 -507.1,212.7 -506.5,208.8 -510,210.8 
			-513.5,209 -512.8,212.9 -515.5,215.8 		"/>
	</g>
</g>
</svg>
