<?xml version="1.0" encoding="utf-8"?>
<!-- Generator: Adobe Illustrator 19.0.0, SVG Export Plug-In . SVG Version: 6.00 Build 0)  -->
<svg version="1.1" id="Capa_1" xmlns="http://www.w3.org/2000/svg" xmlns:xlink="http://www.w3.org/1999/xlink" x="0px" y="0px"
	 viewBox="-178.4 253.4 55 55" style="enable-background:new -178.4 253.4 55 55;" xml:space="preserve">
<style type="text/css">
	.st0{fill:#FFFFFF;}
</style>
<g>
	<path class="st0" d="M-129.1,292.9c-1.7,0.4-3.5,0.7-5.3,0.7c-9.7,0-18.2-6.5-20.8-15.9c-2-7.3-0.1-14.9,5.1-20.4l1.7-1.8l-2.5,0.1
		c-1.9,0.1-3.8,0.4-5.6,0.9c-13.6,3.7-21.6,17.7-17.9,31.3c3,11.1,13.1,18.8,24.6,18.8c2.2,0,4.5-0.3,6.7-0.9
		c6.3-1.7,11.6-5.7,15-11.2l1.3-2.1L-129.1,292.9z M-143.5,303.6c-2,0.5-4.1,0.8-6.2,0.8c-10.6,0-19.9-7.1-22.7-17.3
		c-3.4-12.5,4-25.4,16.5-28.8c0.9-0.2,1.8-0.4,2.8-0.6c-4.4,5.8-5.9,13.3-4,20.4c2.8,10.2,12.1,17.4,22.7,17.4
		c1.1,0,2.2-0.1,3.3-0.2C-134.2,299.4-138.5,302.3-143.5,303.6z M-148.6,268.3l4.9-1.4l1.5-4.9l1.4,4.9l4.9,1.5l-4.9,1.4l-1.5,4.9
		l-1.4-4.9L-148.6,268.3z M-138,276.7l3.4-1.1l0.9-3.5l1.1,3.4l3.5,0.9l-3.4,1.1l-0.9,3.5l-1.1-3.4L-138,276.7z"/>
</g>
</svg>
