<?xml version="1.0" encoding="iso-8859-1"?>
<!-- Generator: Adobe Illustrator 19.0.0, SVG Export Plug-In . SVG Version: 6.00 Build 0)  -->
<svg version="1.1" id="Layer_1" xmlns="http://www.w3.org/2000/svg" xmlns:xlink="http://www.w3.org/1999/xlink" x="0px" y="0px"
	 viewBox="0 0 512 512" style="enable-background:new 0 0 512 512;" xml:space="preserve">
<g>
	<path style="fill:#838383;" d="M256,0c141.386,0,256,114.614,256,256c0,141.386-114.614,256-256,256C114.614,512,0,397.386,0,256
		C0,114.614,114.614,0,256,0z"/>
	<path style="fill:#8F8F8F;" d="M149.042,201.588c0,77.886,63.145,141.029,141.029,141.029c77.89,0,141.026-63.143,141.026-141.029
		S367.961,60.561,290.071,60.561C212.187,60.561,149.042,123.703,149.042,201.588z"/>
</g>
<path style="fill:#FAFBFC;" d="M213.946,92.133c1.763,0,3.193,1.432,3.193,3.196c0,1.763-1.43,3.195-3.193,3.195
	c-1.764,0-3.195-1.432-3.195-3.195C210.751,93.565,212.182,92.133,213.946,92.133z M317.403,74.979c0.969,0,1.75,0.786,1.75,1.75
	s-0.781,1.748-1.75,1.748c-0.965,0-1.748-0.783-1.748-1.748S316.438,74.979,317.403,74.979z M257.392,19.23
	c1.535,0,2.783,1.246,2.783,2.783c0,1.535-1.248,2.781-2.783,2.781c-1.535,0-2.783-1.246-2.783-2.781
	C254.609,20.476,255.858,19.23,257.392,19.23z M419.099,430.598c0.964,0,1.75,0.783,1.75,1.748c0,0.965-0.785,1.748-1.75,1.748
	c-0.967,0-1.748-0.783-1.748-1.748C417.351,431.381,418.133,430.598,419.099,430.598z M122.117,424.928
	c0.965,0,1.748,0.783,1.748,1.75c0,0.967-0.783,1.748-1.748,1.748c-0.966,0-1.75-0.781-1.75-1.748
	C120.368,425.712,121.151,424.928,122.117,424.928z M308.192,488.452c0.964,0,1.75,0.783,1.75,1.75c0,0.966-0.786,1.748-1.75,1.748
	c-0.967,0-1.75-0.781-1.75-1.748C306.441,489.236,307.225,488.452,308.192,488.452z M470.904,244.382
	c0.964,0,1.748,0.783,1.748,1.748c0,0.969-0.783,1.75-1.748,1.75c-0.964,0-1.748-0.781-1.748-1.75
	C469.156,245.165,469.939,244.382,470.904,244.382z M442.406,211.312c0.967,0,1.748,0.785,1.748,1.75
	c0,0.967-0.781,1.748-1.748,1.748c-0.966,0-1.75-0.781-1.75-1.748C440.656,212.098,441.44,211.312,442.406,211.312z
	 M452.629,284.037c0.967,0,1.748,0.781,1.748,1.75c0,0.964-0.781,1.748-1.748,1.748c-0.964,0-1.748-0.783-1.748-1.748
	C450.881,284.818,451.665,284.037,452.629,284.037z M348.869,410.594c0.967,0,1.748,0.783,1.748,1.748
	c0,0.964-0.781,1.748-1.748,1.748c-0.965,0-1.748-0.783-1.748-1.748C347.121,411.378,347.904,410.594,348.869,410.594z
	 M85.039,107.13c0.967,0,1.748,0.781,1.748,1.748c0,0.967-0.781,1.75-1.748,1.75c-0.964,0-1.748-0.783-1.748-1.75
	C83.291,107.911,84.075,107.13,85.039,107.13z M159.934,59.462c0.967,0,1.748,0.781,1.748,1.748c0,0.965-0.781,1.75-1.748,1.75
	c-0.967,0-1.75-0.785-1.75-1.75C158.183,60.244,158.967,59.462,159.934,59.462z M21.692,247.88c0.964,0,1.748,0.783,1.748,1.75
	c0,0.964-0.783,1.75-1.748,1.75c-0.964,0-1.748-0.785-1.748-1.75C19.944,248.663,20.728,247.88,21.692,247.88z M97.434,303.107
	c0.964,0,1.748,0.783,1.748,1.748c0,0.964-0.783,1.75-1.748,1.75c-0.967,0-1.748-0.786-1.748-1.75
	C95.686,303.89,96.467,303.107,97.434,303.107z M104.798,366.417c0.967,0,1.75,0.783,1.75,1.75c0,0.967-0.783,1.748-1.75,1.748
	c-0.964,0-1.75-0.781-1.75-1.748C103.048,367.2,103.834,366.417,104.798,366.417z M394.626,76.587c0.966,0,1.75,0.783,1.75,1.748
	c0,0.966-0.783,1.748-1.75,1.748c-0.965,0-1.748-0.781-1.748-1.748C392.878,77.37,393.661,76.587,394.626,76.587z M416.029,106.566
	c3.773,0,6.831,3.058,6.831,6.831c0,3.77-3.058,6.828-6.831,6.828c-3.773,0-6.831-3.058-6.831-6.828
	C409.199,109.624,412.257,106.566,416.029,106.566z M187.602,444.88c1.764,0,3.196,1.434,3.196,3.195
	c0,1.764-1.432,3.196-3.196,3.196c-1.763,0-3.193-1.432-3.193-3.196C184.409,446.314,185.838,444.88,187.602,444.88z
	 M443.879,333.929c6.874,0,12.447,5.575,12.447,12.448c0,6.876-5.573,12.452-12.447,12.452c-6.876,0-12.45-5.575-12.45-12.452
	C431.429,339.504,437.003,333.929,443.879,333.929z M99.855,195.951c4.446,0,8.052,3.605,8.052,8.053
	c0,4.449-3.605,8.054-8.052,8.054c-4.446,0-8.053-3.605-8.053-8.054C91.801,199.557,95.409,195.951,99.855,195.951z
	 M140.532,119.454c1.764,0,3.196,1.434,3.196,3.198c0,1.761-1.432,3.195-3.196,3.195c-1.763,0-3.193-1.434-3.193-3.195
	C137.339,120.887,138.768,119.454,140.532,119.454z"/>
<path style="fill:#FBFBFB;" d="M338.838,83.688c44.454,0,80.49,36.038,80.49,80.493c0,44.454-36.036,80.492-80.49,80.492
	c-44.456,0-80.493-36.038-80.493-80.492C258.345,119.726,294.382,83.688,338.838,83.688z"/>
<path style="fill:#FFFFFF;" d="M338.838,93.639c38.958,0,70.542,31.583,70.542,70.542c0,38.961-31.584,70.542-70.542,70.542
	c-38.962,0-70.542-31.581-70.542-70.542C268.296,125.221,299.876,93.639,338.838,93.639z"/>
<path style="fill:#EFEFEF;" d="M371.711,101.754c11.64,6.146,21.355,15.448,28.003,26.771c-3.404,2.918-7.827,4.68-12.663,4.68
	c-10.75,0-19.466-8.714-19.466-19.464C367.585,109.219,369.129,105.061,371.711,101.754z M290.426,144.992
	c10.75,0,19.466,8.714,19.466,19.466c0,10.75-8.716,19.464-19.466,19.464c-10.75,0-19.466-8.714-19.466-19.464
	C270.96,153.705,279.675,144.992,290.426,144.992z M343.476,146.492c10.748,0,19.466,8.718,19.466,19.466
	c0,10.752-8.718,19.468-19.466,19.468c-10.752,0-19.468-8.716-19.468-19.468C324.009,155.21,332.724,146.492,343.476,146.492z"/>
<path style="fill:#6C4C40;" d="M73.22,435.216c14.328-18.959,28.749-36.425,43.501-52.171c11.698-12.493,32.701-13.322,46.177-4.506
	c65.323,42.729,103.025,86.626,128.279,131.044C279.675,511.164,267.934,512,256,512C184.402,512,119.678,482.595,73.22,435.216z"/>
<path style="fill:#4B342C;" d="M150.123,373.435c4.604,0.909,8.989,2.627,12.775,5.104
	c65.323,42.729,103.025,86.626,128.279,131.044C279.675,511.164,267.934,512,256,512c-39.305,0-76.534-8.867-109.814-24.695
	c11.066-7.676,20.535-17.258,10.283-36.034C133.901,409.946,150.123,373.435,150.123,373.435z"/>
<path style="fill:#6C4C40;" d="M271.617,511.512c25.969-64.305,62.626-131.967,133.014-210.236c3.258-3.622,6.79-6.469,10.395-8.514
	c28.527,19.839,52.89,45.246,71.52,74.647C447.258,448.552,366.39,505.806,271.617,511.512z"/>
<path style="fill:#5C4036;" d="M429.533,444.19c7.538-18.064,9.093-36.696-7.36-45.549c-30.305-16.307-9.547-79.425-1.118-101.564
	c25.941,19.156,48.19,43.025,65.491,70.332C472.459,396.497,453.028,422.514,429.533,444.19z"/>
<g>
	<path style="fill:#FFFFFF;" d="M155.854,238.385c1.457,0,2.639,1.182,2.639,2.641c0,1.457-1.182,2.639-2.639,2.639
		c-1.459,0-2.641-1.182-2.641-2.639C153.213,239.567,154.395,238.385,155.854,238.385z"/>
	<path style="fill:#FFFFFF;" d="M233.217,281.785c1.457,0,2.639,1.182,2.639,2.641c0,1.459-1.182,2.641-2.639,2.641
		c-1.459,0-2.641-1.182-2.641-2.641C230.576,282.967,231.758,281.785,233.217,281.785z"/>
	<path style="fill:#FFFFFF;" d="M218.122,229.962c1.457,0,2.639,1.182,2.639,2.641c0,1.457-1.182,2.639-2.639,2.639
		c-1.459,0-2.641-1.182-2.641-2.639C215.481,231.144,216.663,229.962,218.122,229.962z"/>
	<path style="fill:#FFFFFF;" d="M292.084,284.303c1.459,0,2.641,1.182,2.641,2.641c0,1.457-1.182,2.639-2.641,2.639
		c-1.457,0-2.639-1.182-2.639-2.639C289.446,285.485,290.627,284.303,292.084,284.303z"/>
	<path style="fill:#FFFFFF;" d="M159.757,301.913c1.459,0,2.641,1.182,2.641,2.641c0,1.457-1.182,2.639-2.641,2.639
		c-1.457,0-2.639-1.182-2.639-2.639C157.118,303.095,158.3,301.913,159.757,301.913z"/>
	<path style="fill:#FFFFFF;" d="M259.379,367.322c1.459,0,2.641,1.182,2.641,2.639c0,1.459-1.182,2.641-2.641,2.641
		c-1.457,0-2.639-1.182-2.639-2.641C256.74,368.504,257.921,367.322,259.379,367.322z"/>
	<path style="fill:#FFFFFF;" d="M313.717,326.063c1.459,0,2.641,1.182,2.641,2.641c0,1.457-1.182,2.639-2.641,2.639
		c-1.457,0-2.639-1.182-2.639-2.639C311.078,327.245,312.26,326.063,313.717,326.063z"/>
	<path style="fill:#FFFFFF;" d="M216.109,334.619c1.459,0,2.641,1.182,2.641,2.639c0,1.459-1.182,2.641-2.641,2.641
		c-1.459,0-2.641-1.182-2.641-2.641C213.468,335.801,214.649,334.619,216.109,334.619z"/>
	<path style="fill:#FFFFFF;" d="M52.588,287.823c1.457,0,2.641,1.182,2.641,2.641c0,1.459-1.184,2.641-2.641,2.641
		c-1.459,0-2.641-1.182-2.641-2.641C49.947,289.006,51.129,287.823,52.588,287.823z"/>
	<path style="fill:#FFFFFF;" d="M364.536,279.271c1.459,0,2.641,1.182,2.641,2.641c0,1.459-1.182,2.641-2.641,2.641
		c-1.457,0-2.639-1.182-2.639-2.641C361.898,280.452,363.08,279.271,364.536,279.271z"/>
	<path style="fill:#FFFFFF;" d="M208.059,155.377c1.459,0,2.641,1.182,2.641,2.639c0,1.459-1.182,2.641-2.641,2.641
		c-1.457,0-2.639-1.182-2.639-2.641C205.421,156.56,206.602,155.377,208.059,155.377z"/>
	<path style="fill:#FFFFFF;" d="M64.788,163.049c1.457,0,2.639,1.182,2.639,2.641c0,1.457-1.182,2.639-2.639,2.639
		c-1.459,0-2.641-1.182-2.641-2.639C62.147,164.231,63.329,163.049,64.788,163.049z"/>
</g>
<g>
</g>
<g>
</g>
<g>
</g>
<g>
</g>
<g>
</g>
<g>
</g>
<g>
</g>
<g>
</g>
<g>
</g>
<g>
</g>
<g>
</g>
<g>
</g>
<g>
</g>
<g>
</g>
<g>
</g>
</svg>
