<?xml version="1.0" encoding="utf-8"?>
<!-- Generator: Adobe Illustrator 19.0.0, SVG Export Plug-In . SVG Version: 6.00 Build 0)  -->
<svg version="1.1" id="Capa_1" xmlns="http://www.w3.org/2000/svg" xmlns:xlink="http://www.w3.org/1999/xlink" x="0px" y="0px"
	 viewBox="-278.6 253.6 55 55" style="enable-background:new -278.6 253.6 55 55;" xml:space="preserve">
<style type="text/css">
	.st0{fill:#FFFFFF;}
</style>
<g>
	<circle class="st0" cx="-235.3" cy="298" r="2.4"/>
	<circle class="st0" cx="-245.8" cy="298" r="2.4"/>
	<circle class="st0" cx="-256.3" cy="298" r="2.4"/>
	<circle class="st0" cx="-266.8" cy="298" r="2.4"/>
	<circle class="st0" cx="-240.5" cy="304.6" r="2.4"/>
	<circle class="st0" cx="-251.1" cy="304.6" r="2.4"/>
	<circle class="st0" cx="-261.6" cy="304.6" r="2.4"/>
	<path class="st0" d="M-238.5,264.1c-0.3,0-0.5,0-0.8,0c-2.2-5.3-7.6-8.9-13.5-8.9c-8.1,0-14.7,6.4-14.7,14.4c0,0,0,0.1,0,0.1
		c-5.4,0.4-9.7,4.9-9.7,10.3c0,5.7,4.7,10.3,10.5,10.3h28.2c7.4,0,13.4-5.9,13.4-13.1C-225.1,270-231.1,264.1-238.5,264.1z
		 M-238.5,286.9h-28.2c-3.9,0-7.1-3.1-7.1-6.9c0-3.8,3.2-6.9,7.1-6.9c0.2,0,0.5,0,0.8,0.1c0.5,0.1,1.1-0.1,1.4-0.5
		c0.4-0.4,0.5-0.9,0.5-1.4c-0.1-0.5-0.1-1.1-0.1-1.6c0-6,5-10.9,11.2-10.9c4.9,0,9.4,3.2,10.8,7.8c0.3,0.8,1.1,1.3,1.9,1.2
		c0.6-0.1,1.1-0.1,1.7-0.1c5.5,0,9.9,4.3,9.9,9.7C-228.5,282.6-233,286.9-238.5,286.9z"/>
</g>
</svg>
