<?xml version="1.0" encoding="utf-8"?>
<!-- Generator: Adobe Illustrator 19.0.0, SVG Export Plug-In . SVG Version: 6.00 Build 0)  -->
<svg version="1.1" id="Layer_1" xmlns="http://www.w3.org/2000/svg" xmlns:xlink="http://www.w3.org/1999/xlink" x="0px" y="0px"
	 viewBox="-92 156 250 250" style="enable-background:new -92 156 250 250;" xml:space="preserve">
<style type="text/css">
	.st0{fill:#D8D8D8;}
	.st1{fill:#FFF9C5;}
	.st2{opacity:0.1;enable-background:new    ;}
	.st3{fill:#80CECC;}
	.st4{fill:#FDC656;}
	.st5{fill:#4FC3F7;}
	.st6{fill:#F85A55;}
</style>
<path class="st0" d="M34.2,360.8l41.6-104.2c1.7-4.4,6.7-6.5,11-4.8c4.4,1.7,6.5,6.7,4.8,11l-39.7,99.6L34.2,360.8z"/>
<path class="st1" d="M50.6,270C50.6,270,50.6,270,50.6,270C50.6,270,50.6,270,50.6,270L50.6,270z"/>
<path class="st2" d="M86.8,251.8c-4.4-1.7-9.3,0.4-11,4.8l-10.9,27.3c2.8,0.4,5.5,1.2,8.2,2.3c2.7,1.1,5.2,2.4,7.6,4l10.9-27.3
	C93.3,258.4,91.2,253.5,86.8,251.8z"/>
<path class="st3" d="M101.9,214l-31.4,3.4l-19.9,23.2l0,29.4l0,0c0,0,0,0,0,0c8.7-1.6,18.4-0.8,27.8,3c9.3,3.7,16.9,9.7,22.1,16.8
	l0.1,0.2l16.4-16.2l1.8-40.5L101.9,214z"/>
<path class="st4" d="M131,379.1c-11.4-18.2-50.1-31.7-96-31.7c-45.9,0-84.6,13.4-96,31.7l6.4,0l13.9,8.9l14.6,1.6l10.3-6l16.4-6
	l8.8,2.4l18.7,9.5l12.3-2l15.9-5.9l11.5-3.6l14.7,3.6l11.9,7.9l19.1-2.4L131,379.1z"/>
<path class="st2" d="M114.9,386.6l16.1-7.5c-11.4-18.2-50.1-31.7-96-31.7c-10.6,0-20.7,0.7-30.3,2
	C52.1,354.9,91.7,368.5,114.9,386.6z"/>
<path class="st5" d="M153,381.1c-11.3-7.6-25.8-7.6-37.1,0c-8.9,6-20.3,6-29.2,0c-11.3-7.6-25.8-7.6-37.1,0c-8.9,6-20.3,6-29.2,0
	c-11.3-7.6-25.8-7.6-37.1,0c-8.9,6-20.3,6-29.2,0c-11.3-7.6-25.8-7.6-37.1,0c-1.6,1.1-2,3.3-0.9,4.9c1.1,1.6,3.3,2,4.9,0.9
	c8.9-6,20.3-6,29.2,0c11.3,7.6,25.8,7.6,37.1,0c8.9-6,20.3-6,29.2,0c11.3,7.6,25.8,7.6,37.1,0c8.9-6,20.3-6,29.2,0
	c5.6,3.8,12.1,5.7,18.6,5.7c6.5,0,12.9-1.9,18.6-5.7c8.9-6,20.3-6,29.2,0c1.6,1.1,3.8,0.7,4.9-0.9
	C155.1,384.3,154.6,382.2,153,381.1z"/>
<g>
	<path class="st6" d="M50.6,270c-5.2-7.2-12.8-13.2-22.2-16.9c-9.4-3.7-19.1-4.6-27.8-3c0,0,42.2-59.6,101.2-36.1
		C101.9,214,70.9,222.3,50.6,270L50.6,270z"/>
	<path class="st6" d="M100.6,289.9c8.7-1.6,18.4-0.8,27.8,3c9.4,3.7,17,9.8,22.2,16.9c0,0,10.4-72.3-48.6-95.8
		C101.9,214,118.6,241.3,100.6,289.9L100.6,289.9z"/>
</g>
<path d="M97.5,291.8c0.9,1.2,2.3,1.9,3.8,1.5c8.4-1.5,17.2-0.5,25.6,2.8c8.5,3.4,15.6,8.8,20.6,15.7c0.7,0.9,1.7,1.5,2.9,1.5
	c0.3,0,0.6,0,0.8-0.1c1.4-0.3,2.4-1.5,2.6-2.9c0.1-0.9,3.2-23.2-4.1-47.4c-0.6-1.9-2.5-2.9-4.4-2.4c-1.9,0.6-2.9,2.5-2.4,4.4
	c4.2,14.1,4.7,27.8,4.5,36.1c-5-4.9-11.1-8.8-18-11.5c-7.8-3.1-15.9-4.4-23.8-3.9c0.1-0.2,0.1-0.4,0.2-0.5
	c2.8-8.4,4.8-17.1,5.8-25.9c0.9-8.1,1-16.2,0-24.3c-0.6-4.7-1.6-9.3-3-13.8c0,0,0-0.1,0-0.1c12.7,6.9,22.4,17,29,30.2
	c0.9,1.7,3,2.4,4.7,1.6c1.7-0.9,2.4-3,1.6-4.7c-8.8-17.5-22.5-30-40.9-37.4c-25.2-10.1-51.5-6.8-76,9.6
	c-18.3,12.2-29,27.1-29.4,27.8c-0.8,1.2-0.9,2.7-0.1,3.9c0.8,1.2,2.2,1.8,3.6,1.6c8.4-1.6,17.3-0.6,25.8,2.8
	c8.4,3.3,15.4,8.7,20.4,15.4c1,1.3,2.4,2.1,4.1,1.6c4.5-0.8,9.1-0.9,13.7-0.3l-28.2,70.8c-0.7,0-1.4,0-2.1,0
	c-16.3,0-31.8,1.6-46.2,4.8c-1.9,0.4-3.1,2.3-2.7,4.2c0.4,1.9,2.3,3.1,4.2,2.7c13.7-3,29.1-4.6,44.7-4.6c7.4,0,14.7,0.3,22.1,1.1
	c0,0,0.1,0,0.1,0c13.6,1.4,26.4,4,37.7,7.7c13.5,4.5,23.8,10.4,29.9,17c-3.1,1-6.1,2.4-8.8,4.3c-8.9,6-20.3,6-29.2,0
	c-11.3-7.6-25.8-7.6-37.1,0c-8.9,6-20.3,6-29.2,0c-11.3-7.6-25.8-7.6-37.1,0c-8.9,6-20.3,6-29.2,0c-2.8-1.9-5.8-3.3-8.8-4.3
	c6.1-6.6,16.5-12.5,29.9-17c1.8-0.6,2.8-2.6,2.2-4.5c-0.6-1.8-2.6-2.8-4.5-2.2c-16.9,5.7-29.1,13.3-35.6,22.3
	c-7-0.4-14.2,1.5-20.3,5.7c-1.6,1.1-2,3.3-0.9,4.9c1.1,1.6,3.3,2,4.9,0.9c5.2-3.6,11.4-5,17.4-4.4c0.2,0,0.4,0.1,0.6,0.1
	c3.9,0.5,7.7,1.9,11.2,4.3c11.3,7.6,25.8,7.6,37.1,0c8.9-6,20.3-6,29.2,0c11.3,7.6,25.8,7.6,37.1,0c8.9-6,20.3-6,29.2,0
	c5.6,3.8,12.1,5.7,18.6,5.7c6.5,0,12.9-1.9,18.6-5.7c3.4-2.3,7.2-3.7,11.2-4.3c0.2,0,0.5,0,0.7-0.1c6-0.6,12.1,0.8,17.3,4.4
	c1.6,1.1,3.8,0.7,4.9-0.9c1.1-1.6,0.7-3.8-0.9-4.9c-6.2-4.2-13.3-6.1-20.3-5.7c-6.5-9-18.8-16.6-35.7-22.3
	c-10.5-3.5-22.2-6-34.6-7.6l25.3-63.5C91.4,284.8,94.8,288.1,97.5,291.8z M56.3,265.8c0-0.1,0.1-0.2,0.1-0.2
	c3.3-6.9,7.1-13.5,11.6-19.7c1.1-1.5,0.8-3.8-0.8-4.9c-1.5-1.1-3.8-0.7-4.9,0.8c-3.6,5-6.8,10.2-9.6,15.6c-1,2-2.1,3.9-3,6
	c0,0,0,0.1,0,0.1c-5.4-5.8-12.2-10.5-20-13.6c-6.8-2.7-14-4.1-21-4c4.7-5.3,12.5-13,22.5-19.7c10-6.6,20.3-11,30.7-12.9
	c10-1.8,20.1-1.4,30.1,1.3c0,0-0.1,0-0.1,0.1c-5.4,3-10.5,6.6-15,10.8c-1.8,1.6-3.5,3.3-5.2,5c-1.3,1.4-1.3,3.6,0.1,5s3.6,1.3,5-0.1
	c4.5-4.7,9.6-9.1,15.2-12.6c2.6-1.6,5.3-3.1,8.1-4.3c0.7,1.7,1.7,4.1,2.6,7.4c4.3,15.3,3.1,31.9-0.6,47.2c-0.8,3.3-1.7,6.6-2.8,9.8
	c0,0,0,0.1,0,0.1c-4.8-5.1-10.7-9.2-17.4-12.2c-0.1,0-0.2-0.1-0.3-0.1C73.6,267,64.9,265.3,56.3,265.8z M81.5,278.3L55,344.8
	c-1.6-0.1-3.3-0.3-4.9-0.4c-1.8-0.1-3.7-0.2-5.5-0.3l27.7-69.5c1.7,0.5,3.3,1.1,4.9,1.7C77.5,276.5,81.5,278.3,81.5,278.3z"/>
</svg>
