<?xml version="1.0" encoding="utf-8"?>
<!-- Generator: Adobe Illustrator 19.0.0, SVG Export Plug-In . SVG Version: 6.00 Build 0)  -->
<svg version="1.1" id="Layer_1" xmlns="http://www.w3.org/2000/svg" xmlns:xlink="http://www.w3.org/1999/xlink" x="0px" y="0px"
	 viewBox="-223 25 512 512" style="enable-background:new -223 25 512 512;" xml:space="preserve">
<style type="text/css">
	.st0{fill:#FEE9C1;}
	.st1{fill:#FEEBC7;}
	.st2{fill:#FEEFD2;}
	.st3{fill:#FEF5E5;}
	.st4{fill:#FFB54C;}
	.st5{fill:#FFCB7F;}
	.st6{fill:#FFFFFF;}
	.st7{fill:#DFF5F9;}
	.st8{fill:#9FD2D9;}
	.st9{fill:#44BAC9;}
	.st10{fill:#22B1C3;}
</style>
<path class="st0" d="M-223,288.9l0,6.3c0,16.1,1.2,19.6,3.5,29.2l0.2,0C-200,437.5-106.6,525.3,9.1,535.9l1,0.1
	c1.5,0.1,3.1,0.3,4.6,0.4l2,0.1c1.3,0.1,2.6,0.2,3.9,0.2c0.8,0,1.7,0.1,2.5,0.1c1.2,0,2.3,0.1,3.5,0.1c1.4,0,2.7,0,4.1,0
	c0.7,0,1.3,0,2,0l0.3,0c1.9,0,3.8,0,5.7-0.1l0.9,0c1.8-0.1,3.6-0.1,5.4-0.2l1.5-0.1c1.6-0.1,3.2-0.2,4.8-0.3l2.2-0.2
	c1.1-0.1,2.1-0.2,3.1-0.3c114.7-10.7,207.4-97.2,227.6-209c2.5-9.6,2.5-12.6,3.7-27.8h0l0.3,0l0,0l0,0c0-1,0.1-1.9,0.1-2.9v-0.1V296
	v-0.1v-0.1v-0.1v-0.1l0,0v-0.1v-0.1v-0.2v-0.1v-0.1v-0.1V295h0V295v-0.1v-0.1v-0.1v-0.1v-0.1v-0.1c1.6-19.1-0.9-50.4-7.3-74.7
	l-0.3-1.3C253,107.3,152.5,25,32.8,25c-122.6,0-225.1,86.4-250,201.7h0c0,0.1-0.1,0.2-0.1,0.3l-0.4,1.6l-0.3,1l-0.5,1.7
	c-3.2,13.1-4.2,28.7-4.5,42.3c-0.1,2.5-0.1,5.1-0.1,7.6v0.5C-223,284.1-223,286.5-223,288.9z"/>
<path class="st1" d="M-182.6,287.6l0,5.3c0,13.5,1.1,16.5,2.9,24.6l0.1,0c16.2,95.3,94.9,169.2,192.4,178.1l0.8,0.1
	c1.3,0.1,2.6,0.2,3.9,0.3l1.7,0.1c1.1,0.1,2.2,0.1,3.3,0.2c0.7,0,1.4,0,2.1,0.1c1,0,2,0.1,3,0.1c1.1,0,2.3,0,3.4,0
	c0.6,0,1.1,0,1.7,0l0.3,0c1.6,0,3.2,0,4.8-0.1l0.8,0c1.5-0.1,3-0.1,4.5-0.2l1.3-0.1c1.3-0.1,2.7-0.2,4-0.3l1.9-0.1
	c0.9-0.1,1.7-0.2,2.6-0.2c96.6-9,174.7-81.9,191.7-176c2.1-8.1,2.1-10.6,3.1-23.4h0l0.2,0l0,0h0c0-0.8,0-1.6,0.1-2.4v-0.1v-0.1v-0.1
	v-0.1v-0.1v-0.1l0,0v-0.1v-0.1V293V293v-0.1v-0.1v-0.1h0v-0.1v-0.1v-0.1v-0.1v-0.1v-0.1v-0.1c1.4-16.1-0.7-42.5-6.2-62.9l-0.3-1.1
	c-23.5-93.6-108.1-163-208.9-163c-103.3,0-189.5,72.7-210.5,169.8l0,0c0,0.1,0,0.1-0.1,0.2l-0.4,1.3l-0.2,0.8l-0.4,1.4
	c-2.7,11-3.5,24.1-3.8,35.6c-0.1,2.1-0.1,4.3-0.1,6.4v0.4C-182.6,283.6-182.6,285.7-182.6,287.6z"/>
<path class="st2" d="M-105.3,285.2l0,3.4c0,8.7,0.7,10.6,1.9,15.8l0.1,0C-92.9,365.5-42.4,413,20.1,418.7l0.5,0
	c0.8,0.1,1.6,0.1,2.5,0.2l1.1,0.1c0.7,0.1,1.4,0.1,2.1,0.1c0.5,0,0.9,0,1.4,0c0.6,0,1.3,0,1.9,0.1c0.7,0,1.5,0,2.2,0
	c0.4,0,0.7,0,1.1,0H33c1,0,2.1,0,3.1,0l0.5,0c1,0,2-0.1,2.9-0.1l0.8,0c0.9,0,1.7-0.1,2.6-0.2l1.2-0.1c0.6,0,1.1-0.1,1.7-0.2
	c62-5.8,112.1-52.5,123-112.9c1.3-5.2,1.3-6.8,2-15h0l0.2,0l0,0l0,0c0-0.5,0-1,0-1.5v0v0v0V289v0v0l0,0v0v0v-0.1v0v0v0v0h0v0v0v0v0
	v0v0v0c0.9-10.3-0.5-27.3-4-40.4l-0.2-0.7c-15-60.1-69.3-104.5-134-104.5c-66.2,0-121.6,46.7-135,108.9h0c0,0,0,0.1,0,0.1l-0.2,0.8
	l-0.1,0.5l-0.2,0.9c-1.7,7.1-2.2,15.5-2.4,22.8c0,1.4-0.1,2.7-0.1,4.1v0.3C-105.3,282.7-105.3,284-105.3,285.2z"/>
<path class="st3" d="M-32.8,283l0,1.6c0,4.1,0.3,5,0.9,7.5l0,0c5,29.1,29,51.6,58.7,54.4l0.2,0c0.4,0,0.8,0.1,1.2,0.1l0.5,0
	c0.3,0,0.7,0,1,0.1c0.2,0,0.4,0,0.7,0c0.3,0,0.6,0,0.9,0c0.3,0,0.7,0,1,0c0.2,0,0.3,0,0.5,0H33c0.5,0,1,0,1.5,0l0.2,0
	c0.5,0,0.9,0,1.4-0.1l0.4,0c0.4,0,0.8-0.1,1.2-0.1l0.6,0c0.3,0,0.5,0,0.8-0.1c29.5-2.8,53.3-25,58.5-53.7c0.6-2.5,0.6-3.2,1-7.1h0
	h0.1l0,0l0,0c0-0.3,0-0.5,0-0.7v0v0v0v0v0v0l0,0v0v0v-0.1v0v0v0v0h0v0v0v0v0v0v0v0c0.4-4.9-0.2-13-1.9-19.2l-0.1-0.3
	c-7.2-28.6-33-49.7-63.7-49.7c-31.5,0-57.8,22.2-64.2,51.8l0,0c0,0,0,0,0,0.1l-0.1,0.4l-0.1,0.2l-0.1,0.4c-0.8,3.4-1.1,7.4-1.1,10.9
	c0,0.7,0,1.3,0,2v0.1C-32.8,281.8-32.8,282.4-32.8,283z"/>
<path class="st4" d="M-174.7,303.6c0,0,39.2-18.9,47.5-23.4c8.3-4.5,59.4,24.5,59.4,24.5l63-25.6c0,0,47.9,24.9,59,31.1
	c11.1,6.2-28.9,13.6-52,11.9C-20.8,320.3-180.2,318.8-174.7,303.6z"/>
<path class="st5" d="M-222.9,299.5c15.7-10.8,26.8-22.6,42.7-13.7c15.9,8.9,47.9,19.7,58.3,21.6c10.4,2,34.5-22.5,55.7-21.6
	c21.2,0.8,61.8,25.1,69.7,23.1c7.9-2,44.5-37.6,61.4-33.7s28.3,36.5,47.1,32.1c18.8-4.5,91.5-51.6,109.2-45
	c17.8,6.7,44.1,25.7,67,36.7c-1.2,15.2-1.3,18.2-3.7,27.8c-1.9,10.8-4.6,21.3-7.8,31.5l-483.1,13.3
	C-213.8,352.2-222.6,320.5-222.9,299.5z"/>
<g>
	<path class="st6" d="M240.7,174.3c2.6,0,5.1,0.4,7.2,1.2c2.4-1.6,5.6-2.5,9.1-2.5c3.3,0,6.3,0.8,8.6,2.2c3.3,7.3,6.3,14.9,9,22.6
		c-0.7-0.1-1.3-0.3-2-0.6c-1.3,2.9-5.2,5-9.9,5c-2.9,0-5.5-0.8-7.3-2.1c-1.9,1.3-4.5,2.1-7.3,2.1c-2.7,0-5.2-0.7-7-1.9
		c-1.9,1.4-4.6,2.3-7.6,2.3c-2.8,0-5.4-0.8-7.2-2c-0.9,0.1-1.7,0.2-2.6,0.2c-6.8,0-12.3-3.7-12.3-8.4c0-4.6,5.5-8.4,12.3-8.4
		c0.4,0,0.7,0,1.1,0C225.6,178.5,232.4,174.3,240.7,174.3z"/>
	<path class="st6" d="M108.2,107.9c4.7,0,9.1,0.8,12.9,2.1c4.2-2.8,10-4.5,16.3-4.5c11,0,20.3,5.2,22.7,12.2c5.5,1.1,9.9,4,11.9,7.6
		c0.7-0.1,1.3-0.1,2-0.1c10.2,0,18.4,5.6,18.4,12.5s-8.3,12.6-18.4,12.6c-3.2,0-6.2-0.5-8.8-1.5c-2.2,5.2-9.3,9-17.7,9
		c-5.1,0-9.8-1.4-13.1-3.7c-3.3,2.3-8,3.7-13.1,3.7c-4.9,0-9.3-1.3-12.6-3.4c-3.4,2.5-8.2,4.1-13.6,4.1c-5,0-9.6-1.4-12.9-3.6
		c-1.5,0.2-3.1,0.3-4.7,0.3c-12.1,0-22-6.7-22-15c0-8.3,9.8-14.9,22-14.9c0.7,0,1.3,0,2,0.1C81.1,115.6,93.3,107.9,108.2,107.9z"/>
	<path class="st6" d="M-94.9,199c2.6,0,5.1,0.4,7.2,1.2c2.4-1.6,5.6-2.5,9.1-2.5c6.2,0,11.3,2.9,12.7,6.8c3.1,0.6,5.5,2.2,6.7,4.2
		c0.4,0,0.7,0,1.1,0c5.7,0,10.3,3.1,10.3,7s-4.6,7-10.3,7c-1.8,0-3.4-0.3-4.9-0.8c-1.3,2.9-5.2,5-9.9,5c-2.9,0-5.5-0.8-7.3-2.1
		c-1.9,1.3-4.5,2.1-7.3,2.1c-2.7,0-5.2-0.7-7-1.9c-1.9,1.4-4.6,2.3-7.6,2.3c-2.8,0-5.4-0.8-7.2-2c-0.9,0.1-1.7,0.2-2.6,0.2
		c-6.8,0-12.3-3.7-12.3-8.4s5.5-8.4,12.3-8.4c0.4,0,0.7,0,1.1,0C-110,203.2-103.2,199-94.9,199z"/>
</g>
<path d="M53.1,94.5c0,0,5.7-1.2,10.4-0.3c4.8,0.9,9.7,4.9,15.1,5.2c5.4,0.3,4.3-1.7,4.3-1.7s-3.4,0.5-4.4-2.4
	c-0.9-2.9,2.8-5.3,8.6-9.3c5.8-4,6.9-8.1,5.8-10.6c0,0-1,1.6-5.8,4.2c-4.8,2.5-8.2,7.2-11.9,10.5c-3.7,3.4-4,3.6-7.5,2.8
	C64.1,92.1,56.6,91,53.1,94.5z"/>
<path class="st7" d="M-218.2,330.5c119.8,15.6,220.6-1.9,356.1,25.9c47.4,9.7,97.6-22.3,145.9-26.1c0.2-1.2,0.5-2.3,0.7-3.5l0.7-3
	c-48.6,3.5-99.1,36-146.8,26.2C2.2,322-99,339.8-219.6,323.8l0.1,0.6l0.2,0C-219,326.4-218.6,328.5-218.2,330.5z"/>
<g>
	<path d="M-54.1,138.7c0,0,5.7-1.2,10.4-0.3c4.8,0.9,9.7,4.9,15.1,5.2c5.4,0.3,4.3-1.7,4.3-1.7s-3.4,0.5-4.4-2.4
		c-0.9-2.9,2.8-5.3,8.6-9.3c5.8-4.1,6.9-8.1,5.8-10.6c0,0-1,1.6-5.8,4.2c-4.8,2.5-8.2,7.2-11.9,10.5c-3.7,3.4-3.9,3.6-7.5,2.8
		C-43.1,136.3-50.7,135.2-54.1,138.7z"/>
	<path d="M130.4,197.2c0,0,5.7-1.2,10.4-0.3c4.8,0.9,9.7,4.9,15.1,5.2c5.4,0.3,4.2-1.7,4.2-1.7s-3.4,0.5-4.4-2.4
		c-0.9-2.9,2.8-5.3,8.6-9.3c5.8-4.1,6.9-8.1,5.8-10.6c0,0-1,1.6-5.8,4.2c-4.8,2.5-8.2,7.2-11.9,10.5c-3.7,3.3-4,3.5-7.5,2.8
		C141.5,194.8,133.9,193.7,130.4,197.2z"/>
</g>
<path class="st8" d="M285.1,324c-0.2,0.8-0.4,1.7-0.6,2.6L285.1,324z M283.8,330.3c-21.5,110.1-113.4,194.9-227,205.5
	c-1,0.1-2.1,0.2-3.1,0.3l-2.2,0.2c-1.6,0.1-3.2,0.2-4.8,0.3l-1.5,0.1c-1.8,0.1-3.6,0.2-5.4,0.2l-0.9,0c-1.9,0-3.8,0.1-5.7,0.1
	l-0.3,0c-0.7,0-1.3,0-2,0c-1.4,0-2.7,0-4.1,0c-1.2,0-2.3-0.1-3.5-0.1c-0.9,0-1.7-0.1-2.5-0.1c-1.3-0.1-2.6-0.1-3.9-0.2l-2-0.1
	c-1.5-0.1-3.1-0.2-4.6-0.4l-1-0.1c-113.6-10.4-205.7-95.3-227.3-205.4c119.8,15.6,220.6-1.9,356.1,25.9
	C185.3,366.2,235.5,334.2,283.8,330.3z"/>
<path class="st9" d="M271.9,371.9c-33.9,89.4-116.4,154.8-215.1,164c-1,0.1-2.1,0.2-3.1,0.3l-2.2,0.2c-1.6,0.1-3.2,0.2-4.8,0.3
	l-1.5,0.1c-1.8,0.1-3.6,0.2-5.4,0.2l-0.9,0c-1.9,0-3.8,0.1-5.7,0.1l-0.3,0c-0.7,0-1.3,0-2,0c-1.4,0-2.7,0-4.1,0
	c-1.2,0-2.3-0.1-3.5-0.1c-0.9,0-1.7-0.1-2.5-0.1c-1.3-0.1-2.6-0.1-3.9-0.2l-2-0.1c-1.5-0.1-3.1-0.2-4.6-0.4l-1-0.1
	c-98.9-9.1-181.5-74.6-215.5-164c55.9,0,119.7-25.3,167.7,0C61,404.8,166.3,361.4,271.9,371.9z"/>
<path class="st10" d="M222.2,453c-41.7,46-100,76.8-165.4,82.9c-1,0.1-2.1,0.2-3.1,0.3l-2.2,0.2c-1.6,0.1-3.2,0.2-4.8,0.3l-1.5,0.1
	c-1.8,0.1-3.6,0.2-5.4,0.2l-0.9,0c-1.9,0-3.8,0.1-5.7,0.1l-0.3,0c-0.7,0-1.3,0-2,0c-1.4,0-2.7,0-4.1,0c-1.2,0-2.3-0.1-3.5-0.1
	c-0.9,0-1.7-0.1-2.5-0.1c-1.3-0.1-2.6-0.1-3.9-0.2l-2-0.1c-1.5-0.1-3.1-0.2-4.6-0.4l-1-0.1c-65.5-6-123.9-36.8-165.7-82.9
	C-22.4,425.8,85.8,476,222.2,453z"/>
<path class="st7" d="M-83.6,412.4c35.2,0,63.7,0.8,63.7,1.7s-28.5,1.7-63.7,1.7s-63.7-0.8-63.7-1.7S-118.8,412.4-83.6,412.4z
	 M181.1,489.5c2.6-1.9,5.2-3.8,7.8-5.8c-37.1,0.3-65.3,1.5-65.3,2.9C123.6,488,147.9,489.2,181.1,489.5z M262,394.5
	c1.3-2.7,2.6-5.3,3.8-8c-21.4,0.7-36.4,2.3-36.4,4.1C229.5,392.3,242.7,393.8,262,394.5z M-4.6,459.4c23.8,0,43.1,1,43.1,2.2
	c0,1.2-19.3,2.2-43.1,2.2s-43.1-1-43.1-2.2C-47.6,460.4-28.3,459.4-4.6,459.4z M136.9,439.1c21.2,0,38.3,0.8,38.3,1.8
	c0,1-17.2,1.8-38.3,1.8c-21.2,0-38.3-0.8-38.3-1.8S115.8,439.1,136.9,439.1z M-3.1,490.1c43.2,0,78.2,1.4,78.2,3.2
	c0,1.8-35,3.2-78.2,3.2s-78.2-1.4-78.2-3.2C-81.3,491.6-46.3,490.1-3.1,490.1z M110.7,409.4c55.5,0,100.5,1.3,100.5,3
	c0,1.6-45,3-100.5,3s-100.5-1.3-100.5-3C10.3,410.7,55.3,409.4,110.7,409.4z M82.5,358.4c29,0,52.5,0.9,52.5,1.9s-23.5,1.9-52.5,1.9
	s-52.5-0.9-52.5-1.9S53.6,358.4,82.5,358.4z M-105.3,349.5c33.8,0,61.1,0.6,61.1,1.2c0,0.7-27.4,1.2-61.1,1.2
	c-33.8,0-61.1-0.6-61.1-1.2C-166.4,350-139,349.5-105.3,349.5z"/>
</svg>
