<?xml version="1.0" encoding="utf-8"?>
<!-- Generator: Adobe Illustrator 19.0.0, SVG Export Plug-In . SVG Version: 6.00 Build 0)  -->
<svg version="1.1" id="Capa_1" xmlns="http://www.w3.org/2000/svg" xmlns:xlink="http://www.w3.org/1999/xlink" x="0px" y="0px"
	 viewBox="-223 25 512 512" style="enable-background:new -223 25 512 512;" xml:space="preserve">
<style type="text/css">
	.st0{fill:#B26483;}
	.st1{opacity:0.35;}
	.st2{fill:#FF7998;}
	.st3{fill:#FF4F70;}
	.st4{fill:#674447;}
	.st5{fill:#4F3639;}
</style>
<g>
	<g>
		<circle class="st0" cx="33" cy="281" r="256"/>
	</g>
	<g class="st1">
		<circle class="st2" cx="-12" cy="297" r="152"/>
	</g>
	<g>
		<path class="st3" d="M273.5,369H-87l80,112c0,0,62.6,27.2,110.4,46.1C182.2,504.6,245.5,445.4,273.5,369z"/>
	</g>
	<g>
		<path class="st4" d="M33,537c68.2,0,130.1-26.7,176-70.2c-35-0.9-43.3-8.5-105-8.5c-26.2,0-94.7,23.3-120.1-25.7
			c-20-38.6-56.2-69.6-85.8-77.2c-25-6.4-32.2-30.7-34.3-60c-2.3-30.8-27.2-31.5-42.9-51.5c-14.8-18.9-14.4-40.3-31.1-42.7
			c-8.2,25.1-12.7,51.9-12.7,79.8C-223,422.4-108.4,537,33,537z"/>
	</g>
	<path class="st4" d="M113.5,156.5c-1.9-1.7-4.5-2.4-7.1-2L-4.6,172c-4.3,0.7-7.4,4.3-7.4,8.7v35.1v55.5h-17.5
		c-19.3,0-35.1,14.4-35.1,32.1s15.7,32.1,35.1,32.1s35.1-14.4,35.1-32.1V280v-56.8l93.5-14.8v48.2H81.5c-19.3,0-35.1,14.4-35.1,32.1
		s15.7,32.1,35.1,32.1s35.1-14.4,35.1-32.1v-23.4v-67.2V163C116.6,160.6,115.4,158.2,113.5,156.5z"/>
</g>
<g>
	<path class="st5" d="M-41.2,87c0,0,5.7-1.2,10.4-0.3c4.8,0.9,9.7,4.9,15.1,5.2s4.3-1.7,4.3-1.7s-3.4,0.5-4.4-2.4
		c-0.9-2.9,2.8-5.3,8.6-9.3c5.8-4.1,6.9-8.1,5.8-10.6c0,0-1,1.6-5.8,4.2c-4.8,2.5-8.2,7.2-11.9,10.5c-3.7,3.4-3.9,3.6-7.5,2.8
		S-37.8,83.5-41.2,87z"/>
	<path class="st5" d="M143.3,145.5c0,0,5.7-1.2,10.4-0.3c4.8,0.9,9.7,4.9,15.1,5.2c5.4,0.3,4.2-1.7,4.2-1.7s-3.4,0.5-4.4-2.4
		c-0.9-2.9,2.8-5.3,8.6-9.3c5.8-4.1,6.9-8.1,5.8-10.6c0,0-1,1.6-5.8,4.2c-4.8,2.5-8.2,7.2-11.9,10.5s-4,3.5-7.5,2.8
		C154.4,143.1,146.8,142,143.3,145.5z"/>
</g>
</svg>
