<?xml version="1.0" encoding="utf-8"?>
<!-- Generator: Adobe Illustrator 19.0.0, SVG Export Plug-In . SVG Version: 6.00 Build 0)  -->
<svg version="1.1" id="Capa_1" xmlns="http://www.w3.org/2000/svg" xmlns:xlink="http://www.w3.org/1999/xlink" x="0px" y="0px"
	 viewBox="-223 25 512 512" style="enable-background:new -223 25 512 512;" xml:space="preserve">
<style type="text/css">
	.Chrome_x0020_Highlight{fill:url(#SVGID_1_);stroke:#FFFFFF;stroke-width:0.3629;stroke-miterlimit:1;}
	.st0{fill:url(#XMLID_10_);}
	.st1{opacity:0.51;}
	.st2{fill:url(#XMLID_11_);}
	.st3{opacity:0.7;}
	.st4{fill:url(#XMLID_13_);}
	.st5{opacity:0.49;}
	.st6{fill:#FFFFFF;}
	.st7{fill:none;stroke:#717171;stroke-width:0.5878;stroke-miterlimit:1;}
	.st8{opacity:0.58;}
	.st9{fill:#994F77;stroke:#000000;stroke-width:0.75;stroke-miterlimit:10;}
	.st10{opacity:0.35;}
	.st11{fill:#FF7998;}
	.st12{fill:#DD2F5D;}
	.st13{fill:#674447;}
	.st14{fill:#674447;stroke:#000000;stroke-width:0.25;stroke-miterlimit:10;}
	.st15{fill:#4F3639;}
</style>
<linearGradient id="SVGID_1_" gradientUnits="userSpaceOnUse" x1="-223" y1="537" x2="-223" y2="536">
	<stop  offset="0" style="stop-color:#656565"/>
	<stop  offset="0.618" style="stop-color:#1B1B1B"/>
	<stop  offset="0.6292" style="stop-color:#545454"/>
	<stop  offset="0.9831" style="stop-color:#3E3E3E"/>
</linearGradient>
<g id="XMLID_22_">
	<g id="XMLID_12_">
		<g id="XMLID_20_">
			<g>
				<linearGradient id="XMLID_10_" gradientUnits="userSpaceOnUse" x1="33" y1="522.6895" x2="33" y2="33">
					<stop  offset="0" style="stop-color:#656565"/>
					<stop  offset="0.618" style="stop-color:#1B1B1B"/>
					<stop  offset="0.6292" style="stop-color:#545454"/>
					<stop  offset="0.9831" style="stop-color:#3E3E3E"/>
				</linearGradient>
				<circle id="XMLID_32_" class="st0" cx="33" cy="277.8" r="244.8"/>
			</g>
			<g class="st1">
				<linearGradient id="XMLID_11_" gradientUnits="userSpaceOnUse" x1="33" y1="522.6895" x2="33" y2="33">
					<stop  offset="0" style="stop-color:#0E0E0E"/>
					<stop  offset="0.5" style="stop-color:#000000"/>
					<stop  offset="0.5213" style="stop-color:#010101"/>
					<stop  offset="0.7262" style="stop-color:#0B0B0B"/>
					<stop  offset="1" style="stop-color:#0E0E0E"/>
				</linearGradient>
				<circle id="XMLID_31_" class="st2" cx="33" cy="277.8" r="244.8"/>
			</g>
			<g class="st3">
				<linearGradient id="XMLID_13_" gradientUnits="userSpaceOnUse" x1="33" y1="33" x2="33" y2="522.6895">
					<stop  offset="0" style="stop-color:#FFFFFF;stop-opacity:0.77"/>
					<stop  offset="0.2033" style="stop-color:#FFFFFF;stop-opacity:0.65"/>
					<stop  offset="0.3448" style="stop-color:#FFFFFF;stop-opacity:0.65"/>
					<stop  offset="0.3462" style="stop-color:#FFFFFF;stop-opacity:0.65"/>
					<stop  offset="0.511" style="stop-color:#FFFFFF;stop-opacity:0"/>
					<stop  offset="0.5247" style="stop-color:#E1E1E1;stop-opacity:4.472275e-003"/>
					<stop  offset="0.5464" style="stop-color:#B8B8B8;stop-opacity:1.158136e-002"/>
					<stop  offset="0.5708" style="stop-color:#929292;stop-opacity:1.957367e-002"/>
					<stop  offset="0.5974" style="stop-color:#727272;stop-opacity:2.826838e-002"/>
					<stop  offset="0.6268" style="stop-color:#565656;stop-opacity:3.787606e-002"/>
					<stop  offset="0.6599" style="stop-color:#404040;stop-opacity:4.872554e-002"/>
					<stop  offset="0.6986" style="stop-color:#2F2F2F;stop-opacity:6.138782e-002"/>
					<stop  offset="0.7465" style="stop-color:#242424;stop-opacity:7.705475e-002"/>
					<stop  offset="0.8136" style="stop-color:#1D1D1D;stop-opacity:9.902187e-002"/>
					<stop  offset="1" style="stop-color:#1B1B1B;stop-opacity:0.16"/>
				</linearGradient>
				<circle id="XMLID_30_" class="st4" cx="33" cy="277.8" r="244.8"/>
			</g>
			<g class="st5">
				<g>
					<path class="st6" d="M33,522c-49.2-0.2-97.6-14.8-138.2-42.7c-40.6-27.9-72.5-68-90.1-114c-19.3-50.3-21.3-106.7-5.7-158.2
						c14.3-47.2,43.2-89.3,81.6-120C-41.5,24.7,70.4,16.6,156.4,67c42.5,24.9,77.2,62.8,98.1,107.4c22.9,48.8,28.8,104.8,17,157.3
						C249.6,428.5,168.1,504.4,70,519.2C57.8,521.1,45.4,521.9,33,522c0,0,0,0.7,0,0.7c51.4-0.2,101.8-16.2,143.4-46.4
						C218,446,249.7,402.9,265.6,354c14-43,15.7-90,5.2-133.9c-12-50-40.1-95.3-79.2-128.7c-39-33.3-88-53.6-139.1-57.6
						c-51.2-4-103.1,8.1-147,35c-43.8,26.9-78.8,67.6-98.5,115.1c-17.3,41.8-22.5,88.3-15.5,133c16.3,103,99.8,186.6,202.9,202.9
						c12.8,2,25.7,3,38.6,3C33,522.7,33,522,33,522z"/>
				</g>
			</g>
			<g>
				<circle id="XMLID_29_" class="st7" cx="33" cy="277.8" r="244.8"/>
			</g>
			<g class="st8">
				<g>
					<path d="M33,33.1c49.9,0.1,99,15.3,140,44c39.6,27.7,70.7,67,88.2,112.1c19.8,50.9,21.9,108.2,5.9,160.5
						c-14.2,46.3-42.4,87.9-80,118.5c-38.4,31.2-85.9,50.1-135.3,53.9c-50.1,3.8-100.8-7.9-144-33.6c-41.5-24.7-75.2-61.7-96-105.2
						c-23.5-49.3-29.7-106.1-17.7-159.3c10.8-47.7,36.1-91.6,71.8-124.9c35.7-33.4,81.3-55.5,129.6-63C8,34,20.5,33.1,33,33.1
						c0,0,0-0.1,0-0.1c-51.7,0.1-102.5,16.5-144.3,47c-40.7,29.7-71.8,71.9-87.8,119.7c-14.9,44.4-16.8,93-5.3,138.4
						c12.4,49,40.2,93.6,78.7,126.4c39,33.2,88,53.6,139.1,57.6c51.9,4.1,104.4-8.5,148.6-35.9c42.7-26.5,76.8-66.2,96.4-112.5
						c18.3-43,23.7-91.1,15.9-137.2c-8.5-50.1-33-96.9-69.1-132.6C169.1,68,122,44,71.8,36c-12.8-2-25.8-3-38.8-3.1
						C33,32.9,33,33.1,33,33.1z"/>
				</g>
			</g>
			<g>
				<circle id="XMLID_27_" class="st9" cx="33" cy="277.8" r="244.8"/>
			</g>
		</g>
		<g id="XMLID_18_" class="st10">
			<circle id="XMLID_6_" class="st11" cx="-10" cy="293.1" r="145.4"/>
		</g>
		<g id="XMLID_16_">
			<path id="XMLID_5_" class="st12" d="M263,362H-81.8l76.5,107.1c0,0,59.9,26,105.6,44.1C175.7,491.7,236.2,435.1,263,362z"/>
		</g>
		<g id="XMLID_14_">
			<path id="XMLID_4_" class="st13" d="M33,522.7c65.2,0,124.4-25.5,168.3-67.1c-33.5-0.9-41.4-8.1-100.4-8.1
				c-25.1,0-90.6,22.3-114.9-24.6C-33.1,385.9-67.7,356.3-96,349c-23.9-6.1-30.8-29.4-32.8-57.4c-2.2-29.5-26-30.1-41-49.3
				c-14.2-18.1-13.8-38.5-29.7-40.8c-7.8,24-12.1,49.6-12.1,76.3C-211.8,413.1-102.2,522.7,33,522.7z"/>
		</g>
		<path id="XMLID_3_" class="st14" d="M110,158.8c-1.8-1.6-4.3-2.3-6.8-1.9L-3,173.6c-4.1,0.7-7.1,4.1-7.1,8.3v33.6v53.1h-16.7
			c-18.5,0-33.6,13.8-33.6,30.7c0,16.9,15,30.7,33.6,30.7s33.6-13.8,33.6-30.7v-22.4v-54.3l89.4-14.2v46.1H79.4
			c-18.5,0-33.6,13.8-33.6,30.7c0,16.9,15,30.7,33.6,30.7s33.6-13.8,33.6-30.7v-22.4v-64.3V165C113,162.7,111.8,160.4,110,158.8z"/>
	</g>
	<g id="XMLID_9_">
		<path id="XMLID_2_" class="st15" d="M10.6,125.4c0,0,5.2-1.2,9.5-0.3c4.4,0.9,8.8,4.9,13.8,5.2s3.9-1.7,3.9-1.7s-3.1,0.5-4-2.4
			c-0.8-2.9,2.6-5.3,7.8-9.4c5.3-4.1,6.3-8.2,5.3-10.7c0,0-0.9,1.6-5.3,4.2c-4.4,2.5-7.5,7.3-10.8,10.6c-3.4,3.4-3.6,3.6-6.8,2.8
			C20.7,123,13.7,121.9,10.6,125.4z"/>
		<path id="XMLID_1_" class="st15" d="M178.8,184.4c0,0,5.2-1.2,9.5-0.3c4.4,0.9,8.8,4.9,13.8,5.2c4.9,0.3,3.8-1.7,3.8-1.7
			s-3.1,0.5-4-2.4c-0.8-2.9,2.6-5.3,7.8-9.4c5.3-4.1,6.3-8.2,5.3-10.7c0,0-0.9,1.6-5.3,4.2c-4.4,2.5-7.5,7.3-10.8,10.6
			c-3.4,3.3-3.6,3.5-6.8,2.8C188.9,182,181.9,180.9,178.8,184.4z"/>
	</g>
</g>
</svg>
