<?xml version="1.0" encoding="utf-8"?>
<!-- Generator: Adobe Illustrator 19.0.0, SVG Export Plug-In . SVG Version: 6.00 Build 0)  -->
<svg version="1.1" id="Capa_1" xmlns="http://www.w3.org/2000/svg" xmlns:xlink="http://www.w3.org/1999/xlink" x="0px" y="0px"
	 viewBox="-223 25 512 512" style="enable-background:new -223 25 512 512;" xml:space="preserve">
<style type="text/css">
	.st0{fill:#B26483;}
	.st1{fill:#9B5A6F;}
	.st2{opacity:0.35;}
	.st3{fill:#FF7998;}
	.st4{fill:#FF4F70;}
	.st5{fill:#835354;}
	.st6{fill:#674447;}
	.st7{fill:#4F3639;}
</style>
<g>
	<g>
		<circle class="st0" cx="33" cy="277.8" r="256"/>
	</g>
	<g>
		<path class="st1" d="M210.6,317.4c-1.7,0-3.3,0.3-4.9,0.8c-4.9-7.1-13.1-11.7-22.4-11.7s-17.5,4.7-22.4,11.7
			c-1.6-0.5-3.2-0.8-4.9-0.8c-9,0-16.4,7.3-16.4,16.4H227C227,324.8,219.7,317.4,210.6,317.4z"/>
	</g>
	<g class="st2">
		<circle class="st3" cx="-12" cy="293.8" r="152"/>
	</g>
	<g>
		<circle class="st3" cx="-73.3" cy="372.6" r="71.3"/>
	</g>
	<g>
		<path class="st1" d="M71.1,333.8c0-15.3,12.4-27.7,27.7-27.7c2.3,0,4.5,0.4,6.7,0.9c7.2-7.8,17.5-12.8,29-12.8
			c21.9,0,39.6,17.7,39.6,39.6H71.1z"/>
	</g>
	<g>
		<path class="st4" d="M273.5,365.8H-87l80,112c0,0,62.6,27.2,110.4,46.1C182.2,501.4,245.5,442.2,273.5,365.8z"/>
	</g>
	<g>
		<path class="st5" d="M-63.5,418.3H46.8C33,402.1,6.1,408-13.8,392.8c-18.5-14.1-35.1-46.2-70.2-52s-53-7-53-7l66.5,93l7-1.4V418.3
			z"/>
	</g>
	<g>
		<path class="st0" d="M73,309.8c-2.5,0-4.9,0.5-7.2,1.2c-7.2-10.4-19.2-17.2-32.8-17.2S7.4,300.6,0.2,311c-2.3-0.7-4.7-1.2-7.2-1.2
			c-13.3,0-24,10.7-24,24H97C97,320.5,86.3,309.8,73,309.8z"/>
	</g>
	<g>
		<path class="st6" d="M33,533.8c68.2,0,130.1-26.7,176-70.2c-35-0.9-43.3-8.5-105-8.5c-26.2,0-94.7,23.3-120.1-25.7
			c-20-38.6-56.2-69.6-85.8-77.2c-25-6.4-32.2-30.7-34.3-60c-2.3-30.8-27.2-31.5-42.9-51.5c-14.8-18.9-14.4-40.3-31.1-42.7
			c-8.2,25.1-12.7,51.9-12.7,79.8C-223,419.2-108.4,533.8,33,533.8z"/>
	</g>
	<g>
		<path class="st1" d="M281,293.8c-13.6,0-25.6,6.8-32.8,17.2c-2.3-0.7-4.7-1.2-7.2-1.2c-13.3,0-24,10.7-24,24h65.8
			c2.8-12.7,4.7-25.8,5.6-39.2C286,294.1,283.5,293.8,281,293.8z"/>
	</g>
	<path class="st6" d="M120.5,109.5c-1.9-1.7-4.5-2.4-7.1-2l-111,17.5c-4.3,0.7-7.4,4.3-7.4,8.7v35.1v55.5h-17.5
		c-19.3,0-35.1,14.4-35.1,32.1c0,17.7,15.7,32.1,35.1,32.1s35.1-14.4,35.1-32.1v-23.4v-56.8l93.5-14.8v48.2H88.5
		c-19.3,0-35.1,14.4-35.1,32.1c0,17.7,15.7,32.1,35.1,32.1s35.1-14.4,35.1-32.1v-23.4v-67.2v-35.1
		C123.6,113.6,122.4,111.2,120.5,109.5z"/>
</g>
<g>
	<path class="st7" d="M-41.2,83.8c0,0,5.7-1.2,10.4-0.3c4.8,0.9,9.7,4.9,15.1,5.2s4.3-1.7,4.3-1.7s-3.4,0.5-4.4-2.4
		c-0.9-2.9,2.8-5.3,8.6-9.3c5.8-4.1,6.9-8.1,5.8-10.6c0,0-1,1.6-5.8,4.2c-4.8,2.5-8.2,7.2-11.9,10.5c-3.7,3.4-3.9,3.6-7.5,2.8
		S-37.8,80.3-41.2,83.8z"/>
	<path class="st7" d="M143.3,142.3c0,0,5.7-1.2,10.4-0.3c4.8,0.9,9.7,4.9,15.1,5.2c5.4,0.3,4.2-1.7,4.2-1.7s-3.4,0.5-4.4-2.4
		c-0.9-2.9,2.8-5.3,8.6-9.3c5.8-4.1,6.9-8.1,5.8-10.6c0,0-1,1.6-5.8,4.2c-4.8,2.5-8.2,7.2-11.9,10.5s-4,3.5-7.5,2.8
		C154.4,139.9,146.8,138.8,143.3,142.3z"/>
</g>
</svg>
