<?xml version="1.0" encoding="utf-8"?>
<!-- Generator: Adobe Illustrator 19.0.0, SVG Export Plug-In . SVG Version: 6.00 Build 0)  -->
<svg version="1.1" id="Capa_1" xmlns="http://www.w3.org/2000/svg" xmlns:xlink="http://www.w3.org/1999/xlink" x="0px" y="0px"
	 viewBox="-415 217 128 128" style="enable-background:new -415 217 128 128;" xml:space="preserve">
<style type="text/css">
	.st0{fill:url(#path3818-0-5-0_1_);}
	.st1{fill:url(#XMLID_2_);}
	.st2{opacity:0.51;}
	.st3{fill:url(#XMLID_4_);}
	.st4{opacity:0.7;}
	.st5{fill:url(#XMLID_5_);}
	.st6{opacity:0.49;}
	.st7{fill:#FFFFFF;}
	.st8{fill:none;stroke:#717171;stroke-width:0.5878;stroke-miterlimit:1;}
	.st9{opacity:0.58;}
	.st10{fill:#994F77;stroke:#000000;stroke-width:0.25;stroke-miterlimit:10;}
	.st11{fill:#FFFFFF;stroke:#00B9F9;stroke-width:0.5;stroke-miterlimit:10;}
	.st12{opacity:0.5;fill:none;stroke:url(#path8655-6_1_);stroke-linecap:round;stroke-linejoin:round;enable-background:new    ;}
</style>
<radialGradient id="path3818-0-5-0_1_" cx="-127.4854" cy="-639.93" r="62.7711" gradientTransform="matrix(0.6869 0 0 -0.2146 -263.8612 191.188)" gradientUnits="userSpaceOnUse">
	<stop  offset="0" style="stop-color:#3D3D3D"/>
	<stop  offset="0.5" style="stop-color:#686868;stop-opacity:0.498"/>
	<stop  offset="1" style="stop-color:#686868;stop-opacity:0"/>
</radialGradient>
<path id="path3818-0-5-0" class="st0" d="M-308.3,328.5c0,7.4-19.3,13.5-43.1,13.5c-23.8,0-43.1-6-43.1-13.5c0,0,0,0,0,0
	c0-7.4,19.3-13.5,43.1-13.5C-327.6,315.1-308.3,321.1-308.3,328.5C-308.3,328.5-308.3,328.5-308.3,328.5z"/>
<g id="XMLID_22_">
	<g id="XMLID_12_">
		<g id="XMLID_20_">
			<g>
				
					<linearGradient id="XMLID_2_" gradientUnits="userSpaceOnUse" x1="-351" y1="325.543" x2="-351" y2="222.1387" gradientTransform="matrix(1 0 0 1 0 7.1553)">
					<stop  offset="0" style="stop-color:#656565"/>
					<stop  offset="0.618" style="stop-color:#1B1B1B"/>
					<stop  offset="0.6292" style="stop-color:#545454"/>
					<stop  offset="0.9831" style="stop-color:#3E3E3E"/>
				</linearGradient>
				<circle id="XMLID_32_" class="st1" cx="-351" cy="281" r="51.7"/>
			</g>
			<g class="st2">
				
					<linearGradient id="XMLID_4_" gradientUnits="userSpaceOnUse" x1="-351" y1="325.543" x2="-351" y2="222.1387" gradientTransform="matrix(1 0 0 1 0 7.1553)">
					<stop  offset="0" style="stop-color:#0E0E0E"/>
					<stop  offset="0.5" style="stop-color:#000000"/>
					<stop  offset="0.5213" style="stop-color:#010101"/>
					<stop  offset="0.7262" style="stop-color:#0B0B0B"/>
					<stop  offset="1" style="stop-color:#0E0E0E"/>
				</linearGradient>
				<circle id="XMLID_31_" class="st3" cx="-351" cy="281" r="51.7"/>
			</g>
			<g class="st4">
				
					<linearGradient id="XMLID_5_" gradientUnits="userSpaceOnUse" x1="-351" y1="222.1387" x2="-351" y2="325.543" gradientTransform="matrix(1 0 0 1 0 7.1553)">
					<stop  offset="0" style="stop-color:#FFFFFF;stop-opacity:0.77"/>
					<stop  offset="0.2033" style="stop-color:#FFFFFF;stop-opacity:0.65"/>
					<stop  offset="0.3448" style="stop-color:#FFFFFF;stop-opacity:0.65"/>
					<stop  offset="0.3462" style="stop-color:#FFFFFF;stop-opacity:0.65"/>
					<stop  offset="0.511" style="stop-color:#FFFFFF;stop-opacity:0"/>
					<stop  offset="0.5247" style="stop-color:#E1E1E1;stop-opacity:4.472275e-003"/>
					<stop  offset="0.5464" style="stop-color:#B8B8B8;stop-opacity:1.158136e-002"/>
					<stop  offset="0.5708" style="stop-color:#929292;stop-opacity:1.957367e-002"/>
					<stop  offset="0.5974" style="stop-color:#727272;stop-opacity:2.826838e-002"/>
					<stop  offset="0.6268" style="stop-color:#565656;stop-opacity:3.787606e-002"/>
					<stop  offset="0.6599" style="stop-color:#404040;stop-opacity:4.872554e-002"/>
					<stop  offset="0.6986" style="stop-color:#2F2F2F;stop-opacity:6.138782e-002"/>
					<stop  offset="0.7465" style="stop-color:#242424;stop-opacity:7.705475e-002"/>
					<stop  offset="0.8136" style="stop-color:#1D1D1D;stop-opacity:9.902187e-002"/>
					<stop  offset="1" style="stop-color:#1B1B1B;stop-opacity:0.16"/>
				</linearGradient>
				<circle id="XMLID_30_" class="st5" cx="-351" cy="281" r="51.7"/>
			</g>
			<g class="st6">
				<g>
					<path class="st7" d="M-351,332.1c-20.7-0.2-39.6-12.7-47.6-31.9c-8.5-20.8-1.9-45.2,15.6-59.1c16.3-13,39.6-14.8,57.6-4.3
						c19.3,11.2,29.5,34.3,24.2,56.1C-306.8,315.8-327.7,331.9-351,332.1v0.6c23.2-0.2,44-16,49.8-38.7c4.7-18.3-1.1-38.3-15-51.2
						c-17.1-15.8-43.4-18-62.8-5.3c-15.8,10.3-24.6,28.8-23.2,47.7c2.1,26.6,24.8,47.2,51.3,47.4L-351,332.1L-351,332.1z"/>
				</g>
			</g>
			<g>
				<circle id="XMLID_29_" class="st8" cx="-351" cy="281" r="51.7"/>
			</g>
			<g class="st9">
				<g>
					<path d="M-351,229.5c20.8,0.2,39.9,12.7,47.8,32.1c8.6,21.1,2.1,45.9-15.7,59.9c-16.4,13.1-39.9,14.8-58,4.3
						c-19.6-11.4-29.7-34.9-24.3-56.9C-395.6,245.8-374.6,229.7-351,229.5L-351,229.5c-23.4,0.2-44.2,16-50.1,38.7
						c-4.7,18.3,1.1,38.2,15.1,51c17.2,15.8,43.7,18.1,63.2,5.3c15.8-10.3,24.8-28.7,23.3-47.4c-2.1-26.8-24.9-47.4-51.5-47.7V229.5
						z"/>
				</g>
			</g>
			<g>
				<circle id="XMLID_27_" class="st10" cx="-351" cy="281" r="51.7"/>
			</g>
		</g>
		<path id="XMLID_3_" class="st11" d="M-324,251.7c-0.7-0.5-1.5-0.8-2.2-0.7l-36.1,5.7c-1.5,0.3-2.4,1.5-2.4,2.8v11.4V289h-5.7
			c-6.2,0-11.4,4.6-11.4,10.5c0,5.8,5.2,10.5,11.4,10.5s11.4-4.6,11.4-10.5v-7.7v-18.5l30.4-4.8v15.7h-5.7
			c-6.2,0-11.4,4.6-11.4,10.5c0,5.8,5.2,10.5,11.4,10.5c6.2,0,11.4-4.6,11.4-10.5V287v-21.8v-11.4C-323,253-323.4,252.2-324,251.7z"
			/>
		
			<linearGradient id="path8655-6_1_" gradientUnits="userSpaceOnUse" x1="-607.8975" y1="477.8427" x2="-607.8975" y2="440.84" gradientTransform="matrix(2.7568 0 0 -2.7568 1324.7 1547.2336)">
			<stop  offset="0" style="stop-color:#FFFFFF"/>
			<stop  offset="0.2352" style="stop-color:#FFFFFF;stop-opacity:0.2353"/>
			<stop  offset="0.764" style="stop-color:#FFFFFF;stop-opacity:0.1569"/>
			<stop  offset="1" style="stop-color:#FFFFFF;stop-opacity:0.3922"/>
		</linearGradient>
		<path id="path8655-6" class="st12" d="M-300.1,280.8c0,28.2-22.8,51-51,51c-28.2,0-51-22.8-51-51c0-28.2,22.8-51,51-51
			C-323,229.8-300.1,252.7-300.1,280.8C-300.1,280.8-300.1,280.8-300.1,280.8z"/>
	</g>
</g>
</svg>
