<?xml version="1.0" encoding="utf-8"?>
<!-- Generator: Adobe Illustrator 19.0.0, SVG Export Plug-In . SVG Version: 6.00 Build 0)  -->
<svg version="1.1" id="Layer_1" xmlns="http://www.w3.org/2000/svg" xmlns:xlink="http://www.w3.org/1999/xlink" x="0px" y="0px"
	 viewBox="-442.5 261.3 55 40" style="enable-background:new -442.5 261.3 55 40;" xml:space="preserve">
<style type="text/css">
	.st0{fill:#FFFFFF;}
</style>
<g id="Waves">
	<path class="st0" d="M-387.5,270.2c-0.3,0.4-0.8,0.5-1.2,0.3c-8.1-5.3-18-5.3-25.8,0c-4.6,3.2-9.2,4.7-13.8,4.7
		c-4.6,0-9.2-1.6-13.9-4.7c-0.4-0.3-0.5-0.8-0.2-1.2c0.3-0.4,0.8-0.5,1.2-0.2c8.7,5.9,17.1,5.9,25.8,0c8.4-5.7,19-5.7,27.7,0
		C-387.4,269.3-387.3,269.8-387.5,270.2z"/>
	<path class="st0" d="M-387.8,281c-8.7-5.7-19.3-5.7-27.7,0c-8.7,5.9-17.1,5.9-25.8,0c-0.4-0.3-0.9-0.2-1.2,0.2
		c-0.3,0.4-0.2,0.9,0.2,1.2c4.7,3.2,9.3,4.7,13.9,4.7c4.6,0,9.2-1.6,13.8-4.7c7.8-5.3,17.7-5.3,25.8,0c0.4,0.3,0.9,0.2,1.2-0.3
		C-387.3,281.8-387.4,281.3-387.8,281z"/>
	<path class="st0" d="M-387.8,293.1c-8.7-5.7-19.3-5.7-27.7,0c-8.7,5.9-17.1,5.9-25.8,0c-0.4-0.3-0.9-0.2-1.2,0.2
		c-0.3,0.4-0.2,0.9,0.2,1.2c4.7,3.2,9.3,4.7,13.9,4.7c4.6,0,9.2-1.6,13.8-4.7c7.8-5.3,17.7-5.3,25.8,0c0.4,0.3,0.9,0.2,1.2-0.3
		C-387.3,293.9-387.4,293.3-387.8,293.1z"/>
</g>
</svg>
