<?xml version="1.0" encoding="utf-8"?>
<!-- Generator: Adobe Illustrator 19.0.0, SVG Export Plug-In . SVG Version: 6.00 Build 0)  -->
<svg version="1.1" id="Capa_1" xmlns="http://www.w3.org/2000/svg" xmlns:xlink="http://www.w3.org/1999/xlink" x="0px" y="0px"
	 viewBox="1 249 64 64" style="enable-background:new 1 249 64 64;" xml:space="preserve">
<style type="text/css">
	.st0{fill:#B26483;}
	.st1{opacity:0.35;}
	.st2{fill:#FF7998;}
	.st3{fill:#FF4F70;}
	.st4{fill:#674447;}
	.st5{fill:#4F3639;}
</style>
<g>
	<g>
		<circle class="st0" cx="33" cy="281" r="32"/>
	</g>
	<g class="st1">
		<circle class="st2" cx="27.4" cy="283" r="19"/>
	</g>
	<g>
		<path class="st3" d="M63.1,292H18l10,14c0,0,7.8,3.4,13.8,5.8C51.7,309,59.6,301.5,63.1,292z"/>
	</g>
	<g>
		<path class="st4" d="M33,313c8.5,0,16.3-3.3,22-8.8c-4.4-0.1-5.4-1.1-13.1-1.1c-3.3,0-11.8,2.9-15-3.2c-2.5-4.8-7-8.7-10.7-9.7
			c-3.1-0.8-4-3.8-4.3-7.5c-0.3-3.8-3.4-3.9-5.4-6.4c-1.9-2.4-1.8-5-3.9-5.3c-1,3.1-1.6,6.5-1.6,10C1,298.7,15.3,313,33,313z"/>
	</g>
	<path class="st4" d="M42.8,265.4c-0.2-0.2-0.5-0.3-0.8-0.3l-14,2.2c-0.5,0.1-1.1,0.5-1.1,1.1v4.4v7.1h-1.8c-2.4,0-4.4,1.7-4.4,3.9
		c0,2.2,2.2,4,4.6,4s4.6-1.9,4.6-4.1v-2.9v-7.1l11-1.9v6.1h-1.9c-2.4,0-4.4,1.8-4.4,4s1.7,4,4.2,4c2.4,0,4.2-1.8,4.2-4V279v-8.4
		v-4.4C43,266,43.1,265.7,42.8,265.4z"/>
</g>
<g>
	<path class="st5" d="M23.7,256.8c0,0,0.7-0.1,1.3,0c0.6,0.1,1.2,0.6,1.9,0.6c0.7,0,0.5-0.2,0.5-0.2s-0.4,0.1-0.6-0.3
		c-0.1-0.4,0.4-0.7,1.1-1.2c0.7-0.5,0.9-1,0.7-1.3c0,0-0.1,0.2-0.7,0.5c-0.6,0.3-1,0.9-1.5,1.3c-0.5,0.4-0.5,0.4-0.9,0.3
		C25.1,256.5,24.1,256.3,23.7,256.8z"/>
	<path class="st5" d="M46.8,264.1c0,0,0.7-0.1,1.3,0c0.6,0.1,1.2,0.6,1.9,0.6c0.7,0,0.5-0.2,0.5-0.2s-0.4,0.1-0.5-0.3
		c-0.1-0.4,0.4-0.7,1.1-1.2c0.7-0.5,0.9-1,0.7-1.3c0,0-0.1,0.2-0.7,0.5c-0.6,0.3-1,0.9-1.5,1.3c-0.5,0.4-0.5,0.4-0.9,0.3
		C48.2,263.8,47.2,263.6,46.8,264.1z"/>
</g>
</svg>
