<?xml version="1.0" encoding="utf-8"?>
<!-- Generator: Adobe Illustrator 19.0.0, SVG Export Plug-In . SVG Version: 6.00 Build 0)  -->
<svg version="1.1" id="Capa_1" xmlns="http://www.w3.org/2000/svg" xmlns:xlink="http://www.w3.org/1999/xlink" x="0px" y="0px"
	 viewBox="-31 217 128 128" style="enable-background:new -31 217 128 128;" xml:space="preserve">
<style type="text/css">
	.st0{fill:#B26483;}
	.st1{opacity:0.35;}
	.st2{fill:#FF7998;}
	.st3{fill:#FF4F70;}
	.st4{fill:#674447;}
	.st5{fill:#4F3639;}
</style>
<g>
	<g>
		<circle class="st0" cx="33" cy="281" r="64"/>
	</g>
	<g class="st1">
		<circle class="st2" cx="21.8" cy="285" r="38"/>
	</g>
	<g>
		<path class="st3" d="M93.1,303H3l20,28c0,0,15.7,6.8,27.6,11.5C70.3,336.9,86.1,322.1,93.1,303z"/>
	</g>
	<g>
		<path class="st4" d="M33,345c17,0,32.5-6.7,44-17.5c-8.8-0.2-10.8-2.1-26.3-2.1c-6.5,0-23.7,5.8-30-6.4
			c-5-9.6-14.1-17.4-21.5-19.3c-6.3-1.6-8.1-7.7-8.6-15c-0.6-7.7-6.8-7.9-10.7-12.9c-3.7-4.7-3.6-10.1-7.8-10.7
			c-2,6.3-3.2,13-3.2,20C-31,316.4-2.4,345,33,345z"/>
	</g>
	<path class="st4" d="M53.2,249.9c-0.5-0.4-1.1-0.6-1.8-0.5l-27.6,4.4c-1.1,0.2-1.7,1.1-1.7,2.2v8.8V279h-4.6
		c-4.8,0-8.8,3.4-8.8,7.8c0,4.4,3.9,7.9,8.7,7.9s8.7-3.7,8.7-8.1v-5.9v-14.2l23-3.7V275h-3.9c-4.8,0-8.8,3.6-8.8,8c0,4.4,4,8,8.8,8
		s8.8-3.6,8.8-8v-5.9v-16.8v-8.8C54,250.9,53.7,250.3,53.2,249.9z"/>
</g>
<g>
	<path class="st5" d="M14.4,232.5c0,0,1.4-0.3,2.6-0.1c1.2,0.2,2.4,1.2,3.8,1.3c1.3,0.1,1.1-0.4,1.1-0.4s-0.9,0.1-1.1-0.6
		c-0.2-0.7,0.7-1.3,2.2-2.3c1.4-1,1.7-2,1.4-2.6c0,0-0.3,0.4-1.4,1c-1.2,0.6-2.1,1.8-3,2.6c-0.9,0.9-1,0.9-1.9,0.7
		S15.3,231.6,14.4,232.5z"/>
	<path class="st5" d="M60.6,247.1c0,0,1.4-0.3,2.6-0.1c1.2,0.2,2.4,1.2,3.8,1.3c1.4,0.1,1.1-0.4,1.1-0.4s-0.8,0.1-1.1-0.6
		c-0.2-0.7,0.7-1.3,2.2-2.3c1.4-1,1.7-2,1.4-2.6c0,0-0.3,0.4-1.4,1.1c-1.2,0.6-2.1,1.8-3,2.6c-0.9,0.8-1,0.9-1.9,0.7
		C63.3,246.5,61.5,246.3,60.6,247.1z"/>
</g>
</svg>
